M48
; DRILL file {KiCad 5.1.10} date Sun Jul  4 17:59:25 2021
; FORMAT={-:-/ absolute / inch / decimal}
; #@! TF.CreationDate,2021-07-04T17:59:25+02:00
; #@! TF.GenerationSoftware,Kicad,Pcbnew,5.1.10
; #@! TF.FileFunction,Plated,1,2,PTH
FMAT,2
INCH
T1C0.0118
T2C0.0157
T3C0.0276
T4C0.0315
T5C0.0394
T6C0.0472
%
G90
G05
T1
X4.2874Y-4.9843
X4.4193Y-4.4291
X4.4488Y-5.1673
X4.5059Y-5.376
X4.5295Y-5.0394
X4.5374Y-5.7382
X4.5709Y-5.8209
X4.5768Y-5.5807
X4.5768Y-5.7382
X4.6496Y-5.5413
X4.6496Y-5.5768
X4.6654Y-4.4291
X4.6772Y-4.5197
X4.6949Y-4.8524
X4.6949Y-4.8917
X4.7146Y-4.6161
X4.7677Y-5.3031
X4.7835Y-4.1831
X4.813Y-4.1535
X4.8407Y-5.4695
X4.8425Y-4.124
X4.8524Y-5.3799
X4.8642Y-4.937
X4.865Y-4.4398
X4.876Y-5.2559
X4.8819Y-5.7283
X4.8839Y-5.1781
X4.9094Y-5.1378
X4.9158Y-5.3844
X4.9211Y-5.191
X4.9311Y-5.6791
X4.939Y-5.439
X4.9398Y-4.4398
X4.9429Y-5.6299
X4.9449Y-5.2146
X4.9705Y-5.5098
X4.9744Y-4.9291
X4.9803Y-5.1969
X4.9921Y-5.0748
X4.998Y-5.2736
X5.002Y-5.5591
X5.0177Y-5.3839
X5.0295Y-4.7539
X5.0315Y-5.5591
X5.0354Y-4.3071
X5.0354Y-4.3524
X5.0354Y-4.4941
X5.0374Y-5.1201
X5.0394Y-4.2126
X5.0846Y-5.2008
X5.0858Y-5.0559
X5.1043Y-5.7205
X5.1142Y-4.9311
X5.1476Y-4.7539
X5.1575Y-5.3248
X5.1909Y-5.5276
X5.2067Y-5.1752
X5.2126Y-5.2146
X5.2126Y-5.2559
X5.2303Y-3.8524
X5.2362Y-4.3524
X5.2756Y-4.7441
X5.2815Y-4.3524
X5.2854Y-5.6791
X5.2953Y-4.813
X5.3287Y-5.4508
X5.3346Y-5.2146
X5.3386Y-5.0896
X5.3504Y-5.3681
X5.3701Y-4.0236
X5.3937Y-3.9232
X5.4252Y-4.6752
X5.5315Y-5.1181
X5.5315Y-5.2441
X5.5413Y-5.4665
X5.5413Y-5.5413
X5.5689Y-3.9498
X5.6988Y-3.8248
X5.6988Y-3.937
X5.6988Y-4.0984
X5.8386Y-3.9528
X5.9862Y-4.0236
X6.0197Y-3.9528
X6.0492Y-5.5906
X6.1516Y-5.7972
X6.1713Y-3.9134
X6.2303Y-4.439
X6.2303Y-4.4783
X6.2303Y-4.5177
X6.2303Y-4.5669
X6.2303Y-4.6063
X6.2303Y-4.6457
X6.2992Y-4.7638
X6.3386Y-5.6201
X6.3504Y-5.5787
X6.3681Y-4.3898
X6.3839Y-4.7795
X6.437Y-4.8327
X6.4862Y-5.4724
X6.5Y-4.8228
X6.5453Y-5.5118
X6.5551Y-4.4606
X6.5551Y-4.5118
X6.5748Y-4.9803
X6.5748Y-5.2559
X6.5748Y-5.374
X6.5945Y-4.6024
X6.624Y-5.1181
X6.6654Y-4.2756
X6.6654Y-4.7638
X6.6705Y-5.3102
X6.7087Y-4.4134
X6.7323Y-4.5669
X6.7402Y-4.4646
X6.752Y-5.2657
X6.752Y-5.3642
X6.7559Y-4.8937
X6.7559Y-4.9331
X6.7953Y-4.8937
X6.7953Y-4.9331
X6.8071Y-4.4882
X6.8071Y-4.5236
X6.8209Y-4.2421
X6.8346Y-4.8937
X6.8346Y-4.9331
X6.8465Y-4.4882
X6.8465Y-4.5236
X6.8504Y-4.2421
X6.8858Y-4.4882
X6.8858Y-4.5236
X7.002Y-5.1831
X7.1043Y-5.1594
X7.1339Y-5.124
X7.1398Y-5.185
X7.1457Y-5.2461
X7.2087Y-5.2421
X7.2165Y-5.5098
X7.2185Y-5.1791
X7.4705Y-4.1929
X7.5098Y-4.1929
X7.5394Y-5.2067
X7.5394Y-5.2461
X7.5394Y-5.2953
X7.5394Y-5.3445
X7.5394Y-5.3937
X7.5394Y-5.4429
X7.5394Y-5.4921
X7.5492Y-4.1929
X7.5886Y-4.1929
X7.5886Y-4.2323
X7.5886Y-4.2717
X7.628Y-4.2717
X7.6673Y-4.2717
X7.7067Y-4.2717
T2
X7.1024Y-5.372
T3
X6.1417Y-5.4232
X6.315Y-5.0157
X6.315Y-5.1417
X6.935Y-5.7362
T4
X5.7327Y-5.7382
X5.8327Y-5.7382
X5.9327Y-5.7382
X6.2484Y-5.3543
X6.3484Y-5.3543
X6.4484Y-5.3543
T5
X4.3465Y-5.1472
X4.3465Y-5.2472
X4.3465Y-5.3472
X4.3465Y-5.4472
X4.3465Y-5.5472
X6.7736Y-5.4591
X6.7736Y-5.5591
X6.8736Y-5.4591
X6.8736Y-5.5591
T6
X7.2047Y-3.937
X7.3425Y-3.937
X7.6378Y-4.5276
X7.6378Y-4.6654
T4
G00X4.2815Y-4.1299
M15
G01X4.2815Y-4.1575
M16
G05
G00X4.4921Y-3.9469
M15
G01X4.4646Y-3.9469
M16
G05
G00X4.6752Y-4.1299
M15
G01X4.6752Y-4.1575
M16
G05
T0
M30
