%TF.GenerationSoftware,KiCad,Pcbnew,5.1.10*%
%TF.CreationDate,2021-07-04T17:59:21+02:00*%
%TF.ProjectId,SoundLazer,536f756e-644c-4617-9a65-722e6b696361,rev?*%
%TF.SameCoordinates,Original*%
%TF.FileFunction,Legend,Top*%
%TF.FilePolarity,Positive*%
%FSLAX46Y46*%
G04 Gerber Fmt 4.6, Leading zero omitted, Abs format (unit mm)*
G04 Created by KiCad (PCBNEW 5.1.10) date 2021-07-04 17:59:21*
%MOMM*%
%LPD*%
G01*
G04 APERTURE LIST*
%ADD10C,0.127000*%
%ADD11C,0.340000*%
%ADD12C,0.120000*%
%ADD13C,0.015000*%
%ADD14C,0.150000*%
G04 APERTURE END LIST*
D10*
%TO.C,J1*%
X119950000Y-107750000D02*
X107550000Y-107750000D01*
X107550000Y-107750000D02*
X107550000Y-96750000D01*
X119950000Y-107750000D02*
X119950000Y-96750000D01*
X119950000Y-96750000D02*
X118250000Y-96750000D01*
X109250000Y-96750000D02*
X107550000Y-96750000D01*
X118250000Y-96750000D02*
X118250000Y-95950000D01*
X109250000Y-96750000D02*
X109250000Y-95950000D01*
D11*
X120720000Y-100250000D02*
G75*
G03*
X120720000Y-100250000I-170000J0D01*
G01*
D12*
%TO.C,C26*%
X123690000Y-119588748D02*
X123690000Y-121011252D01*
X125510000Y-119588748D02*
X125510000Y-121011252D01*
%TO.C,SW2*%
X141200000Y-98820000D02*
X140500000Y-98820000D01*
X133200000Y-98820000D02*
X132500000Y-98820000D01*
X139200000Y-98820000D02*
X139000000Y-98820000D01*
X134700000Y-98820000D02*
X134500000Y-98820000D01*
X137500000Y-94730000D02*
X137300000Y-94530000D01*
X136200000Y-94730000D02*
X136400000Y-94530000D01*
X137500000Y-96030000D02*
X137500000Y-94730000D01*
X136400000Y-94530000D02*
X137300000Y-94530000D01*
X136200000Y-94730000D02*
X136200000Y-96030000D01*
X141200000Y-96030000D02*
X132500000Y-96030000D01*
X137700000Y-98820000D02*
X136000000Y-98820000D01*
X141800000Y-97820000D02*
X141800000Y-97030000D01*
X131900000Y-97030000D02*
X131900000Y-97820000D01*
%TO.C,R40*%
X134970000Y-101853641D02*
X134970000Y-101546359D01*
X135730000Y-101853641D02*
X135730000Y-101546359D01*
%TO.C,R39*%
X134230000Y-101546359D02*
X134230000Y-101853641D01*
X133470000Y-101546359D02*
X133470000Y-101853641D01*
%TO.C,R38*%
X138730000Y-101546359D02*
X138730000Y-101853641D01*
X137970000Y-101546359D02*
X137970000Y-101853641D01*
%TO.C,R37*%
X139470000Y-101853641D02*
X139470000Y-101546359D01*
X140230000Y-101853641D02*
X140230000Y-101546359D01*
%TO.C,R36*%
X141546359Y-136120000D02*
X141853641Y-136120000D01*
X141546359Y-136880000D02*
X141853641Y-136880000D01*
%TO.C,R35*%
X144646359Y-136120000D02*
X144953641Y-136120000D01*
X144646359Y-136880000D02*
X144953641Y-136880000D01*
%TO.C,R34*%
X145880000Y-130646359D02*
X145880000Y-130953641D01*
X145120000Y-130646359D02*
X145120000Y-130953641D01*
%TO.C,Q8*%
X139560000Y-138880000D02*
X139560000Y-137950000D01*
X139560000Y-135720000D02*
X139560000Y-136650000D01*
X139560000Y-135720000D02*
X137400000Y-135720000D01*
X139560000Y-138880000D02*
X138100000Y-138880000D01*
%TO.C,Q7*%
X144060000Y-141380000D02*
X144060000Y-140450000D01*
X144060000Y-138220000D02*
X144060000Y-139150000D01*
X144060000Y-138220000D02*
X141900000Y-138220000D01*
X144060000Y-141380000D02*
X142600000Y-141380000D01*
%TO.C,Q6*%
X143960000Y-131880000D02*
X143960000Y-130950000D01*
X143960000Y-128720000D02*
X143960000Y-129650000D01*
X143960000Y-128720000D02*
X141800000Y-128720000D01*
X143960000Y-131880000D02*
X142500000Y-131880000D01*
%TO.C,D4*%
X141500000Y-133300000D02*
X141500000Y-132500000D01*
X141499956Y-132500000D02*
X145950000Y-132500000D01*
X142050000Y-135500000D02*
X145950000Y-135500000D01*
%TO.C,U1*%
X129800000Y-147460000D02*
X133250000Y-147460000D01*
X129800000Y-147460000D02*
X127850000Y-147460000D01*
X129800000Y-142340000D02*
X131750000Y-142340000D01*
X129800000Y-142340000D02*
X127850000Y-142340000D01*
%TO.C,J2*%
X111730000Y-142230000D02*
X110400000Y-142230000D01*
X111730000Y-140900000D02*
X111730000Y-142230000D01*
X111730000Y-139630000D02*
X109070000Y-139630000D01*
X109070000Y-139630000D02*
X109070000Y-129410000D01*
X111730000Y-139630000D02*
X111730000Y-129410000D01*
X111730000Y-129410000D02*
X109070000Y-129410000D01*
%TO.C,Q4*%
X166550000Y-117810000D02*
X170000000Y-117810000D01*
X166550000Y-117810000D02*
X164600000Y-117810000D01*
X166550000Y-112690000D02*
X168500000Y-112690000D01*
X166550000Y-112690000D02*
X164600000Y-112690000D01*
%TO.C,C51*%
X130860000Y-113357836D02*
X130860000Y-113142164D01*
X130140000Y-113357836D02*
X130140000Y-113142164D01*
%TO.C,C50*%
X143060000Y-110107836D02*
X143060000Y-109892164D01*
X142340000Y-110107836D02*
X142340000Y-109892164D01*
%TO.C,C49*%
X118072164Y-135410000D02*
X118287836Y-135410000D01*
X118072164Y-134690000D02*
X118287836Y-134690000D01*
%TO.C,C48*%
X140160000Y-115007836D02*
X140160000Y-114792164D01*
X139440000Y-115007836D02*
X139440000Y-114792164D01*
%TO.C,C46*%
X162192164Y-119560000D02*
X162407836Y-119560000D01*
X162192164Y-118840000D02*
X162407836Y-118840000D01*
%TO.C,C45*%
X163192164Y-111760000D02*
X163407836Y-111760000D01*
X163192164Y-111040000D02*
X163407836Y-111040000D01*
%TO.C,C41*%
X176010000Y-105107836D02*
X176010000Y-104892164D01*
X175290000Y-105107836D02*
X175290000Y-104892164D01*
%TO.C,C36*%
X156860000Y-135607836D02*
X156860000Y-135392164D01*
X156140000Y-135607836D02*
X156140000Y-135392164D01*
%TO.C,C34*%
X132507836Y-120340000D02*
X132292164Y-120340000D01*
X132507836Y-121060000D02*
X132292164Y-121060000D01*
%TO.C,C33*%
X177007836Y-130240000D02*
X176792164Y-130240000D01*
X177007836Y-130960000D02*
X176792164Y-130960000D01*
%TO.C,C32*%
X181010000Y-132707836D02*
X181010000Y-132492164D01*
X180290000Y-132707836D02*
X180290000Y-132492164D01*
%TO.C,C24*%
X121342164Y-136460000D02*
X121557836Y-136460000D01*
X121342164Y-135740000D02*
X121557836Y-135740000D01*
%TO.C,C23*%
X129890000Y-137242164D02*
X129890000Y-137457836D01*
X130610000Y-137242164D02*
X130610000Y-137457836D01*
%TO.C,C22*%
X134257836Y-128940000D02*
X134042164Y-128940000D01*
X134257836Y-129660000D02*
X134042164Y-129660000D01*
%TO.C,C21*%
X126610000Y-138557836D02*
X126610000Y-138342164D01*
X125890000Y-138557836D02*
X125890000Y-138342164D01*
%TO.C,C20*%
X121992164Y-126560000D02*
X122207836Y-126560000D01*
X121992164Y-125840000D02*
X122207836Y-125840000D01*
%TO.C,C17*%
X181042164Y-135810000D02*
X181257836Y-135810000D01*
X181042164Y-135090000D02*
X181257836Y-135090000D01*
%TO.C,C16*%
X131607836Y-126440000D02*
X131392164Y-126440000D01*
X131607836Y-127160000D02*
X131392164Y-127160000D01*
%TO.C,C15*%
X123540000Y-123742164D02*
X123540000Y-123957836D01*
X124260000Y-123742164D02*
X124260000Y-123957836D01*
%TO.C,C14*%
X164340000Y-142742164D02*
X164340000Y-142957836D01*
X165060000Y-142742164D02*
X165060000Y-142957836D01*
%TO.C,C3*%
X124740000Y-146092164D02*
X124740000Y-146307836D01*
X125460000Y-146092164D02*
X125460000Y-146307836D01*
%TO.C,C2*%
X111107836Y-119690000D02*
X110892164Y-119690000D01*
X111107836Y-120410000D02*
X110892164Y-120410000D01*
%TO.C,C1*%
X165060000Y-140607836D02*
X165060000Y-140392164D01*
X164340000Y-140607836D02*
X164340000Y-140392164D01*
%TO.C,Q3*%
X181400000Y-132450000D02*
X181400000Y-130900000D01*
X183200000Y-130900000D02*
X183200000Y-132200000D01*
%TO.C,Y1*%
X139425000Y-133150000D02*
X139425000Y-129150000D01*
X136125000Y-133150000D02*
X139425000Y-133150000D01*
%TO.C,U7*%
X116500000Y-133850000D02*
X119450000Y-133850000D01*
X118900000Y-130750000D02*
X116500000Y-130750000D01*
%TO.C,U6*%
X132090000Y-115350000D02*
X132090000Y-109340000D01*
X138910000Y-113100000D02*
X138910000Y-109340000D01*
X132090000Y-109340000D02*
X133350000Y-109340000D01*
X138910000Y-109340000D02*
X137650000Y-109340000D01*
%TO.C,U5*%
X143770000Y-110930000D02*
X143770000Y-109830000D01*
X143500000Y-110930000D02*
X143770000Y-110930000D01*
X143500000Y-112430000D02*
X143500000Y-110930000D01*
X150130000Y-110930000D02*
X150130000Y-108100000D01*
X150400000Y-110930000D02*
X150130000Y-110930000D01*
X150400000Y-112430000D02*
X150400000Y-110930000D01*
%TO.C,U4*%
X123090000Y-127890000D02*
X121800000Y-127890000D01*
X123090000Y-127440000D02*
X123090000Y-127890000D01*
X123540000Y-127440000D02*
X123090000Y-127440000D01*
X130310000Y-127440000D02*
X130310000Y-127890000D01*
X129860000Y-127440000D02*
X130310000Y-127440000D01*
X123090000Y-134660000D02*
X123090000Y-134210000D01*
X123540000Y-134660000D02*
X123090000Y-134660000D01*
X130310000Y-134660000D02*
X130310000Y-134210000D01*
X129860000Y-134660000D02*
X130310000Y-134660000D01*
%TO.C,U3*%
X182850000Y-136790000D02*
X179400000Y-136790000D01*
X182850000Y-136790000D02*
X184800000Y-136790000D01*
X182850000Y-146910000D02*
X180900000Y-146910000D01*
X182850000Y-146910000D02*
X184800000Y-146910000D01*
%TO.C,U2*%
X159850000Y-140265000D02*
X156250000Y-140265000D01*
X159850000Y-140265000D02*
X162050000Y-140265000D01*
X159850000Y-145735000D02*
X157650000Y-145735000D01*
X159850000Y-145735000D02*
X162050000Y-145735000D01*
%TO.C,TP4*%
X156950000Y-137750000D02*
G75*
G03*
X156950000Y-137750000I-950000J0D01*
G01*
%TO.C,TP3*%
X161350000Y-130600000D02*
G75*
G03*
X161350000Y-130600000I-950000J0D01*
G01*
%TO.C,TP2*%
X161350000Y-127400000D02*
G75*
G03*
X161350000Y-127400000I-950000J0D01*
G01*
%TO.C,TP1*%
X177100000Y-145700000D02*
G75*
G03*
X177100000Y-145700000I-950000J0D01*
G01*
%TO.C,SW1*%
X147550000Y-97030000D02*
X147550000Y-97820000D01*
X157450000Y-97820000D02*
X157450000Y-97030000D01*
X153350000Y-98820000D02*
X151650000Y-98820000D01*
X156850000Y-96030000D02*
X148150000Y-96030000D01*
X151850000Y-94730000D02*
X151850000Y-96030000D01*
X152050000Y-94530000D02*
X152950000Y-94530000D01*
X153150000Y-96030000D02*
X153150000Y-94730000D01*
X151850000Y-94730000D02*
X152050000Y-94530000D01*
X153150000Y-94730000D02*
X152950000Y-94530000D01*
X150350000Y-98820000D02*
X150150000Y-98820000D01*
X154850000Y-98820000D02*
X154650000Y-98820000D01*
X148850000Y-98820000D02*
X148150000Y-98820000D01*
X156850000Y-98820000D02*
X156150000Y-98820000D01*
%TO.C,R33*%
X121080000Y-132203641D02*
X121080000Y-131896359D01*
X120320000Y-132203641D02*
X120320000Y-131896359D01*
%TO.C,R32*%
X177670000Y-141846359D02*
X177670000Y-142153641D01*
X178430000Y-141846359D02*
X178430000Y-142153641D01*
%TO.C,R31*%
X167853641Y-120620000D02*
X167546359Y-120620000D01*
X167853641Y-121380000D02*
X167546359Y-121380000D01*
%TO.C,R30*%
X165753641Y-120620000D02*
X165446359Y-120620000D01*
X165753641Y-121380000D02*
X165446359Y-121380000D01*
%TO.C,R29*%
X170120000Y-109946359D02*
X170120000Y-110253641D01*
X170880000Y-109946359D02*
X170880000Y-110253641D01*
%TO.C,R28*%
X168453641Y-109220000D02*
X168146359Y-109220000D01*
X168453641Y-109980000D02*
X168146359Y-109980000D01*
%TO.C,R27*%
X162320000Y-129946359D02*
X162320000Y-130253641D01*
X163080000Y-129946359D02*
X163080000Y-130253641D01*
%TO.C,R26*%
X161453641Y-125220000D02*
X161146359Y-125220000D01*
X161453641Y-125980000D02*
X161146359Y-125980000D01*
%TO.C,R25*%
X151380000Y-101853641D02*
X151380000Y-101546359D01*
X150620000Y-101853641D02*
X150620000Y-101546359D01*
%TO.C,R24*%
X126953641Y-115720000D02*
X126646359Y-115720000D01*
X126953641Y-116480000D02*
X126646359Y-116480000D01*
%TO.C,R23*%
X149120000Y-101546359D02*
X149120000Y-101853641D01*
X149880000Y-101546359D02*
X149880000Y-101853641D01*
%TO.C,R22*%
X153620000Y-101546359D02*
X153620000Y-101853641D01*
X154380000Y-101546359D02*
X154380000Y-101853641D01*
%TO.C,R21*%
X155880000Y-101853641D02*
X155880000Y-101546359D01*
X155120000Y-101853641D02*
X155120000Y-101546359D01*
%TO.C,R20*%
X125953641Y-116820000D02*
X125646359Y-116820000D01*
X125953641Y-117580000D02*
X125646359Y-117580000D01*
%TO.C,R19*%
X183820000Y-131346359D02*
X183820000Y-131653641D01*
X184580000Y-131346359D02*
X184580000Y-131653641D01*
%TO.C,R18*%
X178920000Y-134056359D02*
X178920000Y-134363641D01*
X179680000Y-134056359D02*
X179680000Y-134363641D01*
%TO.C,R17*%
X124380000Y-138353641D02*
X124380000Y-138046359D01*
X123620000Y-138353641D02*
X123620000Y-138046359D01*
%TO.C,R16*%
X122003641Y-144770000D02*
X121696359Y-144770000D01*
X122003641Y-145530000D02*
X121696359Y-145530000D01*
%TO.C,R15*%
X173996359Y-144180000D02*
X174303641Y-144180000D01*
X173996359Y-143420000D02*
X174303641Y-143420000D01*
%TO.C,R14*%
X133803641Y-130920000D02*
X133496359Y-130920000D01*
X133803641Y-131680000D02*
X133496359Y-131680000D01*
%TO.C,R13*%
X119196359Y-129680000D02*
X119503641Y-129680000D01*
X119196359Y-128920000D02*
X119503641Y-128920000D01*
%TO.C,R12*%
X168503641Y-142270000D02*
X168196359Y-142270000D01*
X168503641Y-143030000D02*
X168196359Y-143030000D01*
%TO.C,R11*%
X168503641Y-143420000D02*
X168196359Y-143420000D01*
X168503641Y-144180000D02*
X168196359Y-144180000D01*
%TO.C,R10*%
X111120000Y-127046359D02*
X111120000Y-127353641D01*
X111880000Y-127046359D02*
X111880000Y-127353641D01*
%TO.C,R9*%
X116453641Y-125220000D02*
X116146359Y-125220000D01*
X116453641Y-125980000D02*
X116146359Y-125980000D01*
%TO.C,R8*%
X115896359Y-139230000D02*
X116203641Y-139230000D01*
X115896359Y-138470000D02*
X116203641Y-138470000D01*
%TO.C,R7*%
X115896359Y-140730000D02*
X116203641Y-140730000D01*
X115896359Y-139970000D02*
X116203641Y-139970000D01*
%TO.C,R6*%
X138330000Y-126053641D02*
X138330000Y-125746359D01*
X137570000Y-126053641D02*
X137570000Y-125746359D01*
%TO.C,R5*%
X115096359Y-120680000D02*
X115403641Y-120680000D01*
X115096359Y-119920000D02*
X115403641Y-119920000D01*
%TO.C,R4*%
X110806359Y-122080000D02*
X111113641Y-122080000D01*
X110806359Y-121320000D02*
X111113641Y-121320000D01*
%TO.C,R3*%
X154453641Y-144820000D02*
X154146359Y-144820000D01*
X154453641Y-145580000D02*
X154146359Y-145580000D01*
%TO.C,R2*%
X154153641Y-140370000D02*
X153846359Y-140370000D01*
X154153641Y-141130000D02*
X153846359Y-141130000D01*
%TO.C,R1*%
X159903641Y-139120000D02*
X159596359Y-139120000D01*
X159903641Y-139880000D02*
X159596359Y-139880000D01*
%TO.C,Q5*%
X166600000Y-123640000D02*
X163150000Y-123640000D01*
X166600000Y-123640000D02*
X168550000Y-123640000D01*
X166600000Y-128760000D02*
X164650000Y-128760000D01*
X166600000Y-128760000D02*
X168550000Y-128760000D01*
%TO.C,Q2*%
X178100000Y-132450000D02*
X178100000Y-130900000D01*
X179900000Y-130900000D02*
X179900000Y-132200000D01*
%TO.C,Q1*%
X118940000Y-140790000D02*
X119170000Y-140790000D01*
X123660000Y-140790000D02*
X123430000Y-140790000D01*
X123660000Y-140790000D02*
X123660000Y-143510000D01*
X123660000Y-143510000D02*
X122350000Y-143510000D01*
X123430000Y-139650000D02*
X123430000Y-140790000D01*
X118940000Y-143510000D02*
X118940000Y-140790000D01*
X120250000Y-143510000D02*
X118940000Y-143510000D01*
%TO.C,L1*%
X187100000Y-108250000D02*
X187100000Y-111450000D01*
X176500000Y-108250000D02*
X187100000Y-108250000D01*
X176500000Y-111450000D02*
X176500000Y-108250000D01*
X176500000Y-118850000D02*
X176500000Y-115650000D01*
X187100000Y-118850000D02*
X176500000Y-118850000D01*
X187100000Y-115650000D02*
X187100000Y-118850000D01*
%TO.C,J5*%
X198750000Y-112050000D02*
X198750000Y-114050000D01*
X197500000Y-112050000D02*
X198750000Y-112050000D01*
X191750000Y-120000000D02*
X191750000Y-119250000D01*
X196050000Y-120000000D02*
X191750000Y-120000000D01*
X196050000Y-119250000D02*
X196050000Y-120000000D01*
X196400000Y-119250000D02*
X196050000Y-119250000D01*
X196400000Y-119750000D02*
X196400000Y-119250000D01*
X197400000Y-120000000D02*
X196400000Y-119750000D01*
X197400000Y-117000000D02*
X197400000Y-120000000D01*
X196400000Y-117250000D02*
X197400000Y-117000000D01*
X196400000Y-117750000D02*
X196400000Y-117250000D01*
X196050000Y-117750000D02*
X196400000Y-117750000D01*
X196050000Y-117000000D02*
X196050000Y-117750000D01*
X191750000Y-117000000D02*
X196050000Y-117000000D01*
X191750000Y-117750000D02*
X191750000Y-117000000D01*
X191750000Y-116500000D02*
X191750000Y-115750000D01*
X196050000Y-116500000D02*
X191750000Y-116500000D01*
X196050000Y-115750000D02*
X196050000Y-116500000D01*
X196400000Y-115750000D02*
X196050000Y-115750000D01*
X196400000Y-116250000D02*
X196400000Y-115750000D01*
X197400000Y-116500000D02*
X196400000Y-116250000D01*
X197400000Y-113500000D02*
X197400000Y-116500000D01*
X196400000Y-113750000D02*
X197400000Y-113500000D01*
X196400000Y-114250000D02*
X196400000Y-113750000D01*
X196050000Y-114250000D02*
X196400000Y-114250000D01*
X196050000Y-113500000D02*
X196050000Y-114250000D01*
X191750000Y-113500000D02*
X196050000Y-113500000D01*
X191750000Y-114250000D02*
X191750000Y-113500000D01*
X198360000Y-121060000D02*
X198360000Y-112440000D01*
X190890000Y-121060000D02*
X198360000Y-121060000D01*
X190890000Y-112440000D02*
X190890000Y-121060000D01*
X198360000Y-112440000D02*
X190890000Y-112440000D01*
X191750155Y-115749647D02*
G75*
G03*
X191750000Y-114250000I-1700155J749647D01*
G01*
X191750155Y-119249647D02*
G75*
G03*
X191750000Y-117750000I-1700155J749647D01*
G01*
%TO.C,J4*%
X180050000Y-95250000D02*
X182050000Y-95250000D01*
X180050000Y-96500000D02*
X180050000Y-95250000D01*
X188000000Y-102250000D02*
X187250000Y-102250000D01*
X188000000Y-97950000D02*
X188000000Y-102250000D01*
X187250000Y-97950000D02*
X188000000Y-97950000D01*
X187250000Y-97600000D02*
X187250000Y-97950000D01*
X187750000Y-97600000D02*
X187250000Y-97600000D01*
X188000000Y-96600000D02*
X187750000Y-97600000D01*
X185000000Y-96600000D02*
X188000000Y-96600000D01*
X185250000Y-97600000D02*
X185000000Y-96600000D01*
X185750000Y-97600000D02*
X185250000Y-97600000D01*
X185750000Y-97950000D02*
X185750000Y-97600000D01*
X185000000Y-97950000D02*
X185750000Y-97950000D01*
X185000000Y-102250000D02*
X185000000Y-97950000D01*
X185750000Y-102250000D02*
X185000000Y-102250000D01*
X184500000Y-102250000D02*
X183750000Y-102250000D01*
X184500000Y-97950000D02*
X184500000Y-102250000D01*
X183750000Y-97950000D02*
X184500000Y-97950000D01*
X183750000Y-97600000D02*
X183750000Y-97950000D01*
X184250000Y-97600000D02*
X183750000Y-97600000D01*
X184500000Y-96600000D02*
X184250000Y-97600000D01*
X181500000Y-96600000D02*
X184500000Y-96600000D01*
X181750000Y-97600000D02*
X181500000Y-96600000D01*
X182250000Y-97600000D02*
X181750000Y-97600000D01*
X182250000Y-97950000D02*
X182250000Y-97600000D01*
X181500000Y-97950000D02*
X182250000Y-97950000D01*
X181500000Y-102250000D02*
X181500000Y-97950000D01*
X182250000Y-102250000D02*
X181500000Y-102250000D01*
X189060000Y-95640000D02*
X180440000Y-95640000D01*
X189060000Y-103110000D02*
X189060000Y-95640000D01*
X180440000Y-103110000D02*
X189060000Y-103110000D01*
X180440000Y-95640000D02*
X180440000Y-103110000D01*
X183749647Y-102249845D02*
G75*
G03*
X182250000Y-102250000I-749647J-1700155D01*
G01*
X187249647Y-102249845D02*
G75*
G03*
X185750000Y-102250000I-749647J-1700155D01*
G01*
%TO.C,J3*%
X170720000Y-142530000D02*
X170720000Y-141200000D01*
X172050000Y-142530000D02*
X170720000Y-142530000D01*
X170720000Y-139930000D02*
X170720000Y-137330000D01*
X173320000Y-139930000D02*
X170720000Y-139930000D01*
X173320000Y-142530000D02*
X173320000Y-139930000D01*
X170720000Y-137330000D02*
X175920000Y-137330000D01*
X173320000Y-142530000D02*
X175920000Y-142530000D01*
X175920000Y-142530000D02*
X175920000Y-137330000D01*
%TO.C,Freq1*%
X151625000Y-146246000D02*
X151625000Y-148210000D01*
X151625000Y-143470000D02*
X151625000Y-145256000D01*
X144675000Y-146246000D02*
X144675000Y-148210000D01*
X144675000Y-143470000D02*
X144675000Y-145256000D01*
X144675000Y-148210000D02*
X151625000Y-148210000D01*
X144675000Y-143470000D02*
X151625000Y-143470000D01*
%TO.C,FB2*%
X112260000Y-117612779D02*
X112260000Y-117287221D01*
X111240000Y-117612779D02*
X111240000Y-117287221D01*
%TO.C,FB1*%
X116360000Y-116562779D02*
X116360000Y-116237221D01*
X115340000Y-116562779D02*
X115340000Y-116237221D01*
%TO.C,F1*%
X176447936Y-103710000D02*
X177652064Y-103710000D01*
X176447936Y-101890000D02*
X177652064Y-101890000D01*
%TO.C,Duty1*%
X157775000Y-135504000D02*
X157775000Y-133540000D01*
X157775000Y-138280000D02*
X157775000Y-136494000D01*
X164725000Y-135504000D02*
X164725000Y-133540000D01*
X164725000Y-138280000D02*
X164725000Y-136494000D01*
X164725000Y-133540000D02*
X157775000Y-133540000D01*
X164725000Y-138280000D02*
X157775000Y-138280000D01*
%TO.C,D3*%
X172450000Y-95550000D02*
X178150000Y-95550000D01*
X172450000Y-99850000D02*
X178150000Y-99850000D01*
X172450000Y-95550000D02*
X172450000Y-99850000D01*
%TO.C,D2*%
X164100000Y-118550000D02*
X166650000Y-118550000D01*
X164100000Y-120250000D02*
X166650000Y-120250000D01*
X164100000Y-118550000D02*
X164100000Y-120250000D01*
%TO.C,D1*%
X166800000Y-110350000D02*
X169350000Y-110350000D01*
X166800000Y-112050000D02*
X169350000Y-112050000D01*
X166800000Y-110350000D02*
X166800000Y-112050000D01*
%TO.C,C53*%
X134511252Y-116265000D02*
X133988748Y-116265000D01*
X134511252Y-117735000D02*
X133988748Y-117735000D01*
%TO.C,C52*%
X145438748Y-107135000D02*
X145961252Y-107135000D01*
X145438748Y-105665000D02*
X145961252Y-105665000D01*
%TO.C,C47*%
X138488748Y-117735000D02*
X139011252Y-117735000D01*
X138488748Y-116265000D02*
X139011252Y-116265000D01*
%TO.C,C44*%
X172965000Y-104938748D02*
X172965000Y-105461252D01*
X174435000Y-104938748D02*
X174435000Y-105461252D01*
%TO.C,C43*%
X161011252Y-116065000D02*
X160488748Y-116065000D01*
X161011252Y-117535000D02*
X160488748Y-117535000D01*
%TO.C,C42*%
X161011252Y-113165000D02*
X160488748Y-113165000D01*
X161011252Y-114635000D02*
X160488748Y-114635000D01*
%TO.C,C40*%
X170560000Y-100404437D02*
X169495563Y-99340000D01*
X170560000Y-106795563D02*
X169495563Y-107860000D01*
X170560000Y-106795563D02*
X170560000Y-104910000D01*
X170560000Y-100404437D02*
X170560000Y-102290000D01*
X169495563Y-99340000D02*
X162040000Y-99340000D01*
X169495563Y-107860000D02*
X162040000Y-107860000D01*
X162040000Y-107860000D02*
X162040000Y-104910000D01*
X162040000Y-99340000D02*
X162040000Y-102290000D01*
%TO.C,C38*%
X165440580Y-129490000D02*
X165159420Y-129490000D01*
X165440580Y-130510000D02*
X165159420Y-130510000D01*
%TO.C,C37*%
X160390000Y-123359420D02*
X160390000Y-123640580D01*
X161410000Y-123359420D02*
X161410000Y-123640580D01*
%TO.C,C35*%
X128259420Y-117910000D02*
X128540580Y-117910000D01*
X128259420Y-116890000D02*
X128540580Y-116890000D01*
%TO.C,C31*%
X132088748Y-123135000D02*
X132611252Y-123135000D01*
X132088748Y-121665000D02*
X132611252Y-121665000D01*
%TO.C,C30*%
X126940000Y-123359420D02*
X126940000Y-123640580D01*
X127960000Y-123359420D02*
X127960000Y-123640580D01*
%TO.C,C29*%
X185040000Y-131359420D02*
X185040000Y-131640580D01*
X186060000Y-131359420D02*
X186060000Y-131640580D01*
%TO.C,C28*%
X177290000Y-134559420D02*
X177290000Y-134840580D01*
X178310000Y-134559420D02*
X178310000Y-134840580D01*
%TO.C,C27*%
X129985000Y-122261252D02*
X129985000Y-121738748D01*
X128515000Y-122261252D02*
X128515000Y-121738748D01*
%TO.C,C25*%
X121061252Y-137415000D02*
X120538748Y-137415000D01*
X121061252Y-138885000D02*
X120538748Y-138885000D01*
%TO.C,C19*%
X121461252Y-123115000D02*
X120938748Y-123115000D01*
X121461252Y-124585000D02*
X120938748Y-124585000D01*
%TO.C,C18*%
X127065000Y-138738748D02*
X127065000Y-139261252D01*
X128535000Y-138738748D02*
X128535000Y-139261252D01*
%TO.C,C13*%
X137815580Y-127740000D02*
X137534420Y-127740000D01*
X137815580Y-128760000D02*
X137534420Y-128760000D01*
%TO.C,C12*%
X132038748Y-125985000D02*
X132561252Y-125985000D01*
X132038748Y-124515000D02*
X132561252Y-124515000D01*
%TO.C,C11*%
X166985000Y-142461252D02*
X166985000Y-141938748D01*
X165515000Y-142461252D02*
X165515000Y-141938748D01*
%TO.C,C10*%
X135609420Y-125660000D02*
X135890580Y-125660000D01*
X135609420Y-124640000D02*
X135890580Y-124640000D01*
%TO.C,C9*%
X137784420Y-134560000D02*
X138065580Y-134560000D01*
X137784420Y-133540000D02*
X138065580Y-133540000D01*
%TO.C,C8*%
X116485000Y-123211252D02*
X116485000Y-122688748D01*
X115015000Y-123211252D02*
X115015000Y-122688748D01*
%TO.C,C7*%
X112235000Y-124611252D02*
X112235000Y-124088748D01*
X110765000Y-124611252D02*
X110765000Y-124088748D01*
%TO.C,C6*%
X135609420Y-127260000D02*
X135890580Y-127260000D01*
X135609420Y-126240000D02*
X135890580Y-126240000D01*
%TO.C,C5*%
X115240580Y-118240000D02*
X114959420Y-118240000D01*
X115240580Y-119260000D02*
X114959420Y-119260000D01*
%TO.C,C4*%
X153590580Y-143040000D02*
X153309420Y-143040000D01*
X153590580Y-144060000D02*
X153309420Y-144060000D01*
%TO.C,J1*%
D13*
X118916532Y-108702160D02*
X118916532Y-109416733D01*
X118868894Y-109559648D01*
X118773618Y-109654924D01*
X118630703Y-109702562D01*
X118535427Y-109702562D01*
X119916934Y-109702562D02*
X119345276Y-109702562D01*
X119631105Y-109702562D02*
X119631105Y-108702160D01*
X119535829Y-108845075D01*
X119440552Y-108940351D01*
X119345276Y-108987989D01*
%TO.C,C26*%
D14*
X121357142Y-119607142D02*
X121309523Y-119654761D01*
X121166666Y-119702380D01*
X121071428Y-119702380D01*
X120928571Y-119654761D01*
X120833333Y-119559523D01*
X120785714Y-119464285D01*
X120738095Y-119273809D01*
X120738095Y-119130952D01*
X120785714Y-118940476D01*
X120833333Y-118845238D01*
X120928571Y-118750000D01*
X121071428Y-118702380D01*
X121166666Y-118702380D01*
X121309523Y-118750000D01*
X121357142Y-118797619D01*
X121738095Y-118797619D02*
X121785714Y-118750000D01*
X121880952Y-118702380D01*
X122119047Y-118702380D01*
X122214285Y-118750000D01*
X122261904Y-118797619D01*
X122309523Y-118892857D01*
X122309523Y-118988095D01*
X122261904Y-119130952D01*
X121690476Y-119702380D01*
X122309523Y-119702380D01*
X123166666Y-118702380D02*
X122976190Y-118702380D01*
X122880952Y-118750000D01*
X122833333Y-118797619D01*
X122738095Y-118940476D01*
X122690476Y-119130952D01*
X122690476Y-119511904D01*
X122738095Y-119607142D01*
X122785714Y-119654761D01*
X122880952Y-119702380D01*
X123071428Y-119702380D01*
X123166666Y-119654761D01*
X123214285Y-119607142D01*
X123261904Y-119511904D01*
X123261904Y-119273809D01*
X123214285Y-119178571D01*
X123166666Y-119130952D01*
X123071428Y-119083333D01*
X122880952Y-119083333D01*
X122785714Y-119130952D01*
X122738095Y-119178571D01*
X122690476Y-119273809D01*
%TO.C,SW2*%
X129666666Y-101354761D02*
X129809523Y-101402380D01*
X130047619Y-101402380D01*
X130142857Y-101354761D01*
X130190476Y-101307142D01*
X130238095Y-101211904D01*
X130238095Y-101116666D01*
X130190476Y-101021428D01*
X130142857Y-100973809D01*
X130047619Y-100926190D01*
X129857142Y-100878571D01*
X129761904Y-100830952D01*
X129714285Y-100783333D01*
X129666666Y-100688095D01*
X129666666Y-100592857D01*
X129714285Y-100497619D01*
X129761904Y-100450000D01*
X129857142Y-100402380D01*
X130095238Y-100402380D01*
X130238095Y-100450000D01*
X130571428Y-100402380D02*
X130809523Y-101402380D01*
X131000000Y-100688095D01*
X131190476Y-101402380D01*
X131428571Y-100402380D01*
X131761904Y-100497619D02*
X131809523Y-100450000D01*
X131904761Y-100402380D01*
X132142857Y-100402380D01*
X132238095Y-100450000D01*
X132285714Y-100497619D01*
X132333333Y-100592857D01*
X132333333Y-100688095D01*
X132285714Y-100830952D01*
X131714285Y-101402380D01*
X132333333Y-101402380D01*
%TO.C,R40*%
X135952380Y-104892857D02*
X135476190Y-105226190D01*
X135952380Y-105464285D02*
X134952380Y-105464285D01*
X134952380Y-105083333D01*
X135000000Y-104988095D01*
X135047619Y-104940476D01*
X135142857Y-104892857D01*
X135285714Y-104892857D01*
X135380952Y-104940476D01*
X135428571Y-104988095D01*
X135476190Y-105083333D01*
X135476190Y-105464285D01*
X135285714Y-104035714D02*
X135952380Y-104035714D01*
X134904761Y-104273809D02*
X135619047Y-104511904D01*
X135619047Y-103892857D01*
X134952380Y-103321428D02*
X134952380Y-103226190D01*
X135000000Y-103130952D01*
X135047619Y-103083333D01*
X135142857Y-103035714D01*
X135333333Y-102988095D01*
X135571428Y-102988095D01*
X135761904Y-103035714D01*
X135857142Y-103083333D01*
X135904761Y-103130952D01*
X135952380Y-103226190D01*
X135952380Y-103321428D01*
X135904761Y-103416666D01*
X135857142Y-103464285D01*
X135761904Y-103511904D01*
X135571428Y-103559523D01*
X135333333Y-103559523D01*
X135142857Y-103511904D01*
X135047619Y-103464285D01*
X135000000Y-103416666D01*
X134952380Y-103321428D01*
%TO.C,R39*%
X134452380Y-104892857D02*
X133976190Y-105226190D01*
X134452380Y-105464285D02*
X133452380Y-105464285D01*
X133452380Y-105083333D01*
X133500000Y-104988095D01*
X133547619Y-104940476D01*
X133642857Y-104892857D01*
X133785714Y-104892857D01*
X133880952Y-104940476D01*
X133928571Y-104988095D01*
X133976190Y-105083333D01*
X133976190Y-105464285D01*
X133452380Y-104559523D02*
X133452380Y-103940476D01*
X133833333Y-104273809D01*
X133833333Y-104130952D01*
X133880952Y-104035714D01*
X133928571Y-103988095D01*
X134023809Y-103940476D01*
X134261904Y-103940476D01*
X134357142Y-103988095D01*
X134404761Y-104035714D01*
X134452380Y-104130952D01*
X134452380Y-104416666D01*
X134404761Y-104511904D01*
X134357142Y-104559523D01*
X134452380Y-103464285D02*
X134452380Y-103273809D01*
X134404761Y-103178571D01*
X134357142Y-103130952D01*
X134214285Y-103035714D01*
X134023809Y-102988095D01*
X133642857Y-102988095D01*
X133547619Y-103035714D01*
X133500000Y-103083333D01*
X133452380Y-103178571D01*
X133452380Y-103369047D01*
X133500000Y-103464285D01*
X133547619Y-103511904D01*
X133642857Y-103559523D01*
X133880952Y-103559523D01*
X133976190Y-103511904D01*
X134023809Y-103464285D01*
X134071428Y-103369047D01*
X134071428Y-103178571D01*
X134023809Y-103083333D01*
X133976190Y-103035714D01*
X133880952Y-102988095D01*
%TO.C,R38*%
X138702380Y-104892857D02*
X138226190Y-105226190D01*
X138702380Y-105464285D02*
X137702380Y-105464285D01*
X137702380Y-105083333D01*
X137750000Y-104988095D01*
X137797619Y-104940476D01*
X137892857Y-104892857D01*
X138035714Y-104892857D01*
X138130952Y-104940476D01*
X138178571Y-104988095D01*
X138226190Y-105083333D01*
X138226190Y-105464285D01*
X137702380Y-104559523D02*
X137702380Y-103940476D01*
X138083333Y-104273809D01*
X138083333Y-104130952D01*
X138130952Y-104035714D01*
X138178571Y-103988095D01*
X138273809Y-103940476D01*
X138511904Y-103940476D01*
X138607142Y-103988095D01*
X138654761Y-104035714D01*
X138702380Y-104130952D01*
X138702380Y-104416666D01*
X138654761Y-104511904D01*
X138607142Y-104559523D01*
X138130952Y-103369047D02*
X138083333Y-103464285D01*
X138035714Y-103511904D01*
X137940476Y-103559523D01*
X137892857Y-103559523D01*
X137797619Y-103511904D01*
X137750000Y-103464285D01*
X137702380Y-103369047D01*
X137702380Y-103178571D01*
X137750000Y-103083333D01*
X137797619Y-103035714D01*
X137892857Y-102988095D01*
X137940476Y-102988095D01*
X138035714Y-103035714D01*
X138083333Y-103083333D01*
X138130952Y-103178571D01*
X138130952Y-103369047D01*
X138178571Y-103464285D01*
X138226190Y-103511904D01*
X138321428Y-103559523D01*
X138511904Y-103559523D01*
X138607142Y-103511904D01*
X138654761Y-103464285D01*
X138702380Y-103369047D01*
X138702380Y-103178571D01*
X138654761Y-103083333D01*
X138607142Y-103035714D01*
X138511904Y-102988095D01*
X138321428Y-102988095D01*
X138226190Y-103035714D01*
X138178571Y-103083333D01*
X138130952Y-103178571D01*
%TO.C,R37*%
X140452380Y-104892857D02*
X139976190Y-105226190D01*
X140452380Y-105464285D02*
X139452380Y-105464285D01*
X139452380Y-105083333D01*
X139500000Y-104988095D01*
X139547619Y-104940476D01*
X139642857Y-104892857D01*
X139785714Y-104892857D01*
X139880952Y-104940476D01*
X139928571Y-104988095D01*
X139976190Y-105083333D01*
X139976190Y-105464285D01*
X139452380Y-104559523D02*
X139452380Y-103940476D01*
X139833333Y-104273809D01*
X139833333Y-104130952D01*
X139880952Y-104035714D01*
X139928571Y-103988095D01*
X140023809Y-103940476D01*
X140261904Y-103940476D01*
X140357142Y-103988095D01*
X140404761Y-104035714D01*
X140452380Y-104130952D01*
X140452380Y-104416666D01*
X140404761Y-104511904D01*
X140357142Y-104559523D01*
X139452380Y-103607142D02*
X139452380Y-102940476D01*
X140452380Y-103369047D01*
%TO.C,R36*%
X141235714Y-137861904D02*
X140969047Y-137480952D01*
X140778571Y-137861904D02*
X140778571Y-137061904D01*
X141083333Y-137061904D01*
X141159523Y-137100000D01*
X141197619Y-137138095D01*
X141235714Y-137214285D01*
X141235714Y-137328571D01*
X141197619Y-137404761D01*
X141159523Y-137442857D01*
X141083333Y-137480952D01*
X140778571Y-137480952D01*
X141502380Y-137061904D02*
X141997619Y-137061904D01*
X141730952Y-137366666D01*
X141845238Y-137366666D01*
X141921428Y-137404761D01*
X141959523Y-137442857D01*
X141997619Y-137519047D01*
X141997619Y-137709523D01*
X141959523Y-137785714D01*
X141921428Y-137823809D01*
X141845238Y-137861904D01*
X141616666Y-137861904D01*
X141540476Y-137823809D01*
X141502380Y-137785714D01*
X142683333Y-137061904D02*
X142530952Y-137061904D01*
X142454761Y-137100000D01*
X142416666Y-137138095D01*
X142340476Y-137252380D01*
X142302380Y-137404761D01*
X142302380Y-137709523D01*
X142340476Y-137785714D01*
X142378571Y-137823809D01*
X142454761Y-137861904D01*
X142607142Y-137861904D01*
X142683333Y-137823809D01*
X142721428Y-137785714D01*
X142759523Y-137709523D01*
X142759523Y-137519047D01*
X142721428Y-137442857D01*
X142683333Y-137404761D01*
X142607142Y-137366666D01*
X142454761Y-137366666D01*
X142378571Y-137404761D01*
X142340476Y-137442857D01*
X142302380Y-137519047D01*
%TO.C,R35*%
X146657142Y-137002380D02*
X146323809Y-136526190D01*
X146085714Y-137002380D02*
X146085714Y-136002380D01*
X146466666Y-136002380D01*
X146561904Y-136050000D01*
X146609523Y-136097619D01*
X146657142Y-136192857D01*
X146657142Y-136335714D01*
X146609523Y-136430952D01*
X146561904Y-136478571D01*
X146466666Y-136526190D01*
X146085714Y-136526190D01*
X146990476Y-136002380D02*
X147609523Y-136002380D01*
X147276190Y-136383333D01*
X147419047Y-136383333D01*
X147514285Y-136430952D01*
X147561904Y-136478571D01*
X147609523Y-136573809D01*
X147609523Y-136811904D01*
X147561904Y-136907142D01*
X147514285Y-136954761D01*
X147419047Y-137002380D01*
X147133333Y-137002380D01*
X147038095Y-136954761D01*
X146990476Y-136907142D01*
X148514285Y-136002380D02*
X148038095Y-136002380D01*
X147990476Y-136478571D01*
X148038095Y-136430952D01*
X148133333Y-136383333D01*
X148371428Y-136383333D01*
X148466666Y-136430952D01*
X148514285Y-136478571D01*
X148561904Y-136573809D01*
X148561904Y-136811904D01*
X148514285Y-136907142D01*
X148466666Y-136954761D01*
X148371428Y-137002380D01*
X148133333Y-137002380D01*
X148038095Y-136954761D01*
X147990476Y-136907142D01*
%TO.C,R34*%
X146707142Y-131102380D02*
X146373809Y-130626190D01*
X146135714Y-131102380D02*
X146135714Y-130102380D01*
X146516666Y-130102380D01*
X146611904Y-130150000D01*
X146659523Y-130197619D01*
X146707142Y-130292857D01*
X146707142Y-130435714D01*
X146659523Y-130530952D01*
X146611904Y-130578571D01*
X146516666Y-130626190D01*
X146135714Y-130626190D01*
X147040476Y-130102380D02*
X147659523Y-130102380D01*
X147326190Y-130483333D01*
X147469047Y-130483333D01*
X147564285Y-130530952D01*
X147611904Y-130578571D01*
X147659523Y-130673809D01*
X147659523Y-130911904D01*
X147611904Y-131007142D01*
X147564285Y-131054761D01*
X147469047Y-131102380D01*
X147183333Y-131102380D01*
X147088095Y-131054761D01*
X147040476Y-131007142D01*
X148516666Y-130435714D02*
X148516666Y-131102380D01*
X148278571Y-130054761D02*
X148040476Y-130769047D01*
X148659523Y-130769047D01*
%TO.C,Q8*%
X135804761Y-138197619D02*
X135709523Y-138150000D01*
X135614285Y-138054761D01*
X135471428Y-137911904D01*
X135376190Y-137864285D01*
X135280952Y-137864285D01*
X135328571Y-138102380D02*
X135233333Y-138054761D01*
X135138095Y-137959523D01*
X135090476Y-137769047D01*
X135090476Y-137435714D01*
X135138095Y-137245238D01*
X135233333Y-137150000D01*
X135328571Y-137102380D01*
X135519047Y-137102380D01*
X135614285Y-137150000D01*
X135709523Y-137245238D01*
X135757142Y-137435714D01*
X135757142Y-137769047D01*
X135709523Y-137959523D01*
X135614285Y-138054761D01*
X135519047Y-138102380D01*
X135328571Y-138102380D01*
X136328571Y-137530952D02*
X136233333Y-137483333D01*
X136185714Y-137435714D01*
X136138095Y-137340476D01*
X136138095Y-137292857D01*
X136185714Y-137197619D01*
X136233333Y-137150000D01*
X136328571Y-137102380D01*
X136519047Y-137102380D01*
X136614285Y-137150000D01*
X136661904Y-137197619D01*
X136709523Y-137292857D01*
X136709523Y-137340476D01*
X136661904Y-137435714D01*
X136614285Y-137483333D01*
X136519047Y-137530952D01*
X136328571Y-137530952D01*
X136233333Y-137578571D01*
X136185714Y-137626190D01*
X136138095Y-137721428D01*
X136138095Y-137911904D01*
X136185714Y-138007142D01*
X136233333Y-138054761D01*
X136328571Y-138102380D01*
X136519047Y-138102380D01*
X136614285Y-138054761D01*
X136661904Y-138007142D01*
X136709523Y-137911904D01*
X136709523Y-137721428D01*
X136661904Y-137626190D01*
X136614285Y-137578571D01*
X136519047Y-137530952D01*
%TO.C,Q7*%
X140354761Y-141647619D02*
X140259523Y-141600000D01*
X140164285Y-141504761D01*
X140021428Y-141361904D01*
X139926190Y-141314285D01*
X139830952Y-141314285D01*
X139878571Y-141552380D02*
X139783333Y-141504761D01*
X139688095Y-141409523D01*
X139640476Y-141219047D01*
X139640476Y-140885714D01*
X139688095Y-140695238D01*
X139783333Y-140600000D01*
X139878571Y-140552380D01*
X140069047Y-140552380D01*
X140164285Y-140600000D01*
X140259523Y-140695238D01*
X140307142Y-140885714D01*
X140307142Y-141219047D01*
X140259523Y-141409523D01*
X140164285Y-141504761D01*
X140069047Y-141552380D01*
X139878571Y-141552380D01*
X140640476Y-140552380D02*
X141307142Y-140552380D01*
X140878571Y-141552380D01*
%TO.C,Q6*%
X143104761Y-128347619D02*
X143009523Y-128300000D01*
X142914285Y-128204761D01*
X142771428Y-128061904D01*
X142676190Y-128014285D01*
X142580952Y-128014285D01*
X142628571Y-128252380D02*
X142533333Y-128204761D01*
X142438095Y-128109523D01*
X142390476Y-127919047D01*
X142390476Y-127585714D01*
X142438095Y-127395238D01*
X142533333Y-127300000D01*
X142628571Y-127252380D01*
X142819047Y-127252380D01*
X142914285Y-127300000D01*
X143009523Y-127395238D01*
X143057142Y-127585714D01*
X143057142Y-127919047D01*
X143009523Y-128109523D01*
X142914285Y-128204761D01*
X142819047Y-128252380D01*
X142628571Y-128252380D01*
X143914285Y-127252380D02*
X143723809Y-127252380D01*
X143628571Y-127300000D01*
X143580952Y-127347619D01*
X143485714Y-127490476D01*
X143438095Y-127680952D01*
X143438095Y-128061904D01*
X143485714Y-128157142D01*
X143533333Y-128204761D01*
X143628571Y-128252380D01*
X143819047Y-128252380D01*
X143914285Y-128204761D01*
X143961904Y-128157142D01*
X144009523Y-128061904D01*
X144009523Y-127823809D01*
X143961904Y-127728571D01*
X143914285Y-127680952D01*
X143819047Y-127633333D01*
X143628571Y-127633333D01*
X143533333Y-127680952D01*
X143485714Y-127728571D01*
X143438095Y-127823809D01*
%TO.C,D4*%
X146811904Y-134202380D02*
X146811904Y-133202380D01*
X147050000Y-133202380D01*
X147192857Y-133250000D01*
X147288095Y-133345238D01*
X147335714Y-133440476D01*
X147383333Y-133630952D01*
X147383333Y-133773809D01*
X147335714Y-133964285D01*
X147288095Y-134059523D01*
X147192857Y-134154761D01*
X147050000Y-134202380D01*
X146811904Y-134202380D01*
X148240476Y-133535714D02*
X148240476Y-134202380D01*
X148002380Y-133154761D02*
X147764285Y-133869047D01*
X148383333Y-133869047D01*
%TO.C,U1*%
X129038095Y-147752380D02*
X129038095Y-148561904D01*
X129085714Y-148657142D01*
X129133333Y-148704761D01*
X129228571Y-148752380D01*
X129419047Y-148752380D01*
X129514285Y-148704761D01*
X129561904Y-148657142D01*
X129609523Y-148561904D01*
X129609523Y-147752380D01*
X130609523Y-148752380D02*
X130038095Y-148752380D01*
X130323809Y-148752380D02*
X130323809Y-147752380D01*
X130228571Y-147895238D01*
X130133333Y-147990476D01*
X130038095Y-148038095D01*
%TO.C,J2*%
X112716666Y-139502380D02*
X112716666Y-140216666D01*
X112669047Y-140359523D01*
X112573809Y-140454761D01*
X112430952Y-140502380D01*
X112335714Y-140502380D01*
X113145238Y-139597619D02*
X113192857Y-139550000D01*
X113288095Y-139502380D01*
X113526190Y-139502380D01*
X113621428Y-139550000D01*
X113669047Y-139597619D01*
X113716666Y-139692857D01*
X113716666Y-139788095D01*
X113669047Y-139930952D01*
X113097619Y-140502380D01*
X113716666Y-140502380D01*
%TO.C,H4*%
X113738095Y-149652380D02*
X113738095Y-148652380D01*
X113738095Y-149128571D02*
X114309523Y-149128571D01*
X114309523Y-149652380D02*
X114309523Y-148652380D01*
X115214285Y-148985714D02*
X115214285Y-149652380D01*
X114976190Y-148604761D02*
X114738095Y-149319047D01*
X115357142Y-149319047D01*
%TO.C,H3*%
X124738095Y-103702380D02*
X124738095Y-102702380D01*
X124738095Y-103178571D02*
X125309523Y-103178571D01*
X125309523Y-103702380D02*
X125309523Y-102702380D01*
X125690476Y-102702380D02*
X126309523Y-102702380D01*
X125976190Y-103083333D01*
X126119047Y-103083333D01*
X126214285Y-103130952D01*
X126261904Y-103178571D01*
X126309523Y-103273809D01*
X126309523Y-103511904D01*
X126261904Y-103607142D01*
X126214285Y-103654761D01*
X126119047Y-103702380D01*
X125833333Y-103702380D01*
X125738095Y-103654761D01*
X125690476Y-103607142D01*
%TO.C,H2*%
X193238095Y-142752380D02*
X193238095Y-141752380D01*
X193238095Y-142228571D02*
X193809523Y-142228571D01*
X193809523Y-142752380D02*
X193809523Y-141752380D01*
X194238095Y-141847619D02*
X194285714Y-141800000D01*
X194380952Y-141752380D01*
X194619047Y-141752380D01*
X194714285Y-141800000D01*
X194761904Y-141847619D01*
X194809523Y-141942857D01*
X194809523Y-142038095D01*
X194761904Y-142180952D01*
X194190476Y-142752380D01*
X194809523Y-142752380D01*
%TO.C,H1*%
X193238095Y-103952380D02*
X193238095Y-102952380D01*
X193238095Y-103428571D02*
X193809523Y-103428571D01*
X193809523Y-103952380D02*
X193809523Y-102952380D01*
X194809523Y-103952380D02*
X194238095Y-103952380D01*
X194523809Y-103952380D02*
X194523809Y-102952380D01*
X194428571Y-103095238D01*
X194333333Y-103190476D01*
X194238095Y-103238095D01*
%TO.C,Q4*%
X171154761Y-115547619D02*
X171059523Y-115500000D01*
X170964285Y-115404761D01*
X170821428Y-115261904D01*
X170726190Y-115214285D01*
X170630952Y-115214285D01*
X170678571Y-115452380D02*
X170583333Y-115404761D01*
X170488095Y-115309523D01*
X170440476Y-115119047D01*
X170440476Y-114785714D01*
X170488095Y-114595238D01*
X170583333Y-114500000D01*
X170678571Y-114452380D01*
X170869047Y-114452380D01*
X170964285Y-114500000D01*
X171059523Y-114595238D01*
X171107142Y-114785714D01*
X171107142Y-115119047D01*
X171059523Y-115309523D01*
X170964285Y-115404761D01*
X170869047Y-115452380D01*
X170678571Y-115452380D01*
X171964285Y-114785714D02*
X171964285Y-115452380D01*
X171726190Y-114404761D02*
X171488095Y-115119047D01*
X172107142Y-115119047D01*
%TO.C,C51*%
X129697142Y-113892857D02*
X129744761Y-113940476D01*
X129792380Y-114083333D01*
X129792380Y-114178571D01*
X129744761Y-114321428D01*
X129649523Y-114416666D01*
X129554285Y-114464285D01*
X129363809Y-114511904D01*
X129220952Y-114511904D01*
X129030476Y-114464285D01*
X128935238Y-114416666D01*
X128840000Y-114321428D01*
X128792380Y-114178571D01*
X128792380Y-114083333D01*
X128840000Y-113940476D01*
X128887619Y-113892857D01*
X128792380Y-112988095D02*
X128792380Y-113464285D01*
X129268571Y-113511904D01*
X129220952Y-113464285D01*
X129173333Y-113369047D01*
X129173333Y-113130952D01*
X129220952Y-113035714D01*
X129268571Y-112988095D01*
X129363809Y-112940476D01*
X129601904Y-112940476D01*
X129697142Y-112988095D01*
X129744761Y-113035714D01*
X129792380Y-113130952D01*
X129792380Y-113369047D01*
X129744761Y-113464285D01*
X129697142Y-113511904D01*
X129792380Y-111988095D02*
X129792380Y-112559523D01*
X129792380Y-112273809D02*
X128792380Y-112273809D01*
X128935238Y-112369047D01*
X129030476Y-112464285D01*
X129078095Y-112559523D01*
%TO.C,C50*%
X141897142Y-110642857D02*
X141944761Y-110690476D01*
X141992380Y-110833333D01*
X141992380Y-110928571D01*
X141944761Y-111071428D01*
X141849523Y-111166666D01*
X141754285Y-111214285D01*
X141563809Y-111261904D01*
X141420952Y-111261904D01*
X141230476Y-111214285D01*
X141135238Y-111166666D01*
X141040000Y-111071428D01*
X140992380Y-110928571D01*
X140992380Y-110833333D01*
X141040000Y-110690476D01*
X141087619Y-110642857D01*
X140992380Y-109738095D02*
X140992380Y-110214285D01*
X141468571Y-110261904D01*
X141420952Y-110214285D01*
X141373333Y-110119047D01*
X141373333Y-109880952D01*
X141420952Y-109785714D01*
X141468571Y-109738095D01*
X141563809Y-109690476D01*
X141801904Y-109690476D01*
X141897142Y-109738095D01*
X141944761Y-109785714D01*
X141992380Y-109880952D01*
X141992380Y-110119047D01*
X141944761Y-110214285D01*
X141897142Y-110261904D01*
X140992380Y-109071428D02*
X140992380Y-108976190D01*
X141040000Y-108880952D01*
X141087619Y-108833333D01*
X141182857Y-108785714D01*
X141373333Y-108738095D01*
X141611428Y-108738095D01*
X141801904Y-108785714D01*
X141897142Y-108833333D01*
X141944761Y-108880952D01*
X141992380Y-108976190D01*
X141992380Y-109071428D01*
X141944761Y-109166666D01*
X141897142Y-109214285D01*
X141801904Y-109261904D01*
X141611428Y-109309523D01*
X141373333Y-109309523D01*
X141182857Y-109261904D01*
X141087619Y-109214285D01*
X141040000Y-109166666D01*
X140992380Y-109071428D01*
%TO.C,C49*%
X115007142Y-135557142D02*
X114959523Y-135604761D01*
X114816666Y-135652380D01*
X114721428Y-135652380D01*
X114578571Y-135604761D01*
X114483333Y-135509523D01*
X114435714Y-135414285D01*
X114388095Y-135223809D01*
X114388095Y-135080952D01*
X114435714Y-134890476D01*
X114483333Y-134795238D01*
X114578571Y-134700000D01*
X114721428Y-134652380D01*
X114816666Y-134652380D01*
X114959523Y-134700000D01*
X115007142Y-134747619D01*
X115864285Y-134985714D02*
X115864285Y-135652380D01*
X115626190Y-134604761D02*
X115388095Y-135319047D01*
X116007142Y-135319047D01*
X116435714Y-135652380D02*
X116626190Y-135652380D01*
X116721428Y-135604761D01*
X116769047Y-135557142D01*
X116864285Y-135414285D01*
X116911904Y-135223809D01*
X116911904Y-134842857D01*
X116864285Y-134747619D01*
X116816666Y-134700000D01*
X116721428Y-134652380D01*
X116530952Y-134652380D01*
X116435714Y-134700000D01*
X116388095Y-134747619D01*
X116340476Y-134842857D01*
X116340476Y-135080952D01*
X116388095Y-135176190D01*
X116435714Y-135223809D01*
X116530952Y-135271428D01*
X116721428Y-135271428D01*
X116816666Y-135223809D01*
X116864285Y-135176190D01*
X116911904Y-135080952D01*
%TO.C,C48*%
X141357142Y-114642857D02*
X141404761Y-114690476D01*
X141452380Y-114833333D01*
X141452380Y-114928571D01*
X141404761Y-115071428D01*
X141309523Y-115166666D01*
X141214285Y-115214285D01*
X141023809Y-115261904D01*
X140880952Y-115261904D01*
X140690476Y-115214285D01*
X140595238Y-115166666D01*
X140500000Y-115071428D01*
X140452380Y-114928571D01*
X140452380Y-114833333D01*
X140500000Y-114690476D01*
X140547619Y-114642857D01*
X140785714Y-113785714D02*
X141452380Y-113785714D01*
X140404761Y-114023809D02*
X141119047Y-114261904D01*
X141119047Y-113642857D01*
X140880952Y-113119047D02*
X140833333Y-113214285D01*
X140785714Y-113261904D01*
X140690476Y-113309523D01*
X140642857Y-113309523D01*
X140547619Y-113261904D01*
X140500000Y-113214285D01*
X140452380Y-113119047D01*
X140452380Y-112928571D01*
X140500000Y-112833333D01*
X140547619Y-112785714D01*
X140642857Y-112738095D01*
X140690476Y-112738095D01*
X140785714Y-112785714D01*
X140833333Y-112833333D01*
X140880952Y-112928571D01*
X140880952Y-113119047D01*
X140928571Y-113214285D01*
X140976190Y-113261904D01*
X141071428Y-113309523D01*
X141261904Y-113309523D01*
X141357142Y-113261904D01*
X141404761Y-113214285D01*
X141452380Y-113119047D01*
X141452380Y-112928571D01*
X141404761Y-112833333D01*
X141357142Y-112785714D01*
X141261904Y-112738095D01*
X141071428Y-112738095D01*
X140976190Y-112785714D01*
X140928571Y-112833333D01*
X140880952Y-112928571D01*
%TO.C,C46*%
X159107142Y-119857142D02*
X159059523Y-119904761D01*
X158916666Y-119952380D01*
X158821428Y-119952380D01*
X158678571Y-119904761D01*
X158583333Y-119809523D01*
X158535714Y-119714285D01*
X158488095Y-119523809D01*
X158488095Y-119380952D01*
X158535714Y-119190476D01*
X158583333Y-119095238D01*
X158678571Y-119000000D01*
X158821428Y-118952380D01*
X158916666Y-118952380D01*
X159059523Y-119000000D01*
X159107142Y-119047619D01*
X159964285Y-119285714D02*
X159964285Y-119952380D01*
X159726190Y-118904761D02*
X159488095Y-119619047D01*
X160107142Y-119619047D01*
X160916666Y-118952380D02*
X160726190Y-118952380D01*
X160630952Y-119000000D01*
X160583333Y-119047619D01*
X160488095Y-119190476D01*
X160440476Y-119380952D01*
X160440476Y-119761904D01*
X160488095Y-119857142D01*
X160535714Y-119904761D01*
X160630952Y-119952380D01*
X160821428Y-119952380D01*
X160916666Y-119904761D01*
X160964285Y-119857142D01*
X161011904Y-119761904D01*
X161011904Y-119523809D01*
X160964285Y-119428571D01*
X160916666Y-119380952D01*
X160821428Y-119333333D01*
X160630952Y-119333333D01*
X160535714Y-119380952D01*
X160488095Y-119428571D01*
X160440476Y-119523809D01*
%TO.C,C45*%
X160107142Y-111857142D02*
X160059523Y-111904761D01*
X159916666Y-111952380D01*
X159821428Y-111952380D01*
X159678571Y-111904761D01*
X159583333Y-111809523D01*
X159535714Y-111714285D01*
X159488095Y-111523809D01*
X159488095Y-111380952D01*
X159535714Y-111190476D01*
X159583333Y-111095238D01*
X159678571Y-111000000D01*
X159821428Y-110952380D01*
X159916666Y-110952380D01*
X160059523Y-111000000D01*
X160107142Y-111047619D01*
X160964285Y-111285714D02*
X160964285Y-111952380D01*
X160726190Y-110904761D02*
X160488095Y-111619047D01*
X161107142Y-111619047D01*
X161964285Y-110952380D02*
X161488095Y-110952380D01*
X161440476Y-111428571D01*
X161488095Y-111380952D01*
X161583333Y-111333333D01*
X161821428Y-111333333D01*
X161916666Y-111380952D01*
X161964285Y-111428571D01*
X162011904Y-111523809D01*
X162011904Y-111761904D01*
X161964285Y-111857142D01*
X161916666Y-111904761D01*
X161821428Y-111952380D01*
X161583333Y-111952380D01*
X161488095Y-111904761D01*
X161440476Y-111857142D01*
%TO.C,C41*%
X177107142Y-105357142D02*
X177059523Y-105404761D01*
X176916666Y-105452380D01*
X176821428Y-105452380D01*
X176678571Y-105404761D01*
X176583333Y-105309523D01*
X176535714Y-105214285D01*
X176488095Y-105023809D01*
X176488095Y-104880952D01*
X176535714Y-104690476D01*
X176583333Y-104595238D01*
X176678571Y-104500000D01*
X176821428Y-104452380D01*
X176916666Y-104452380D01*
X177059523Y-104500000D01*
X177107142Y-104547619D01*
X177964285Y-104785714D02*
X177964285Y-105452380D01*
X177726190Y-104404761D02*
X177488095Y-105119047D01*
X178107142Y-105119047D01*
X179011904Y-105452380D02*
X178440476Y-105452380D01*
X178726190Y-105452380D02*
X178726190Y-104452380D01*
X178630952Y-104595238D01*
X178535714Y-104690476D01*
X178440476Y-104738095D01*
%TO.C,C36*%
X153857142Y-134857142D02*
X153809523Y-134904761D01*
X153666666Y-134952380D01*
X153571428Y-134952380D01*
X153428571Y-134904761D01*
X153333333Y-134809523D01*
X153285714Y-134714285D01*
X153238095Y-134523809D01*
X153238095Y-134380952D01*
X153285714Y-134190476D01*
X153333333Y-134095238D01*
X153428571Y-134000000D01*
X153571428Y-133952380D01*
X153666666Y-133952380D01*
X153809523Y-134000000D01*
X153857142Y-134047619D01*
X154190476Y-133952380D02*
X154809523Y-133952380D01*
X154476190Y-134333333D01*
X154619047Y-134333333D01*
X154714285Y-134380952D01*
X154761904Y-134428571D01*
X154809523Y-134523809D01*
X154809523Y-134761904D01*
X154761904Y-134857142D01*
X154714285Y-134904761D01*
X154619047Y-134952380D01*
X154333333Y-134952380D01*
X154238095Y-134904761D01*
X154190476Y-134857142D01*
X155666666Y-133952380D02*
X155476190Y-133952380D01*
X155380952Y-134000000D01*
X155333333Y-134047619D01*
X155238095Y-134190476D01*
X155190476Y-134380952D01*
X155190476Y-134761904D01*
X155238095Y-134857142D01*
X155285714Y-134904761D01*
X155380952Y-134952380D01*
X155571428Y-134952380D01*
X155666666Y-134904761D01*
X155714285Y-134857142D01*
X155761904Y-134761904D01*
X155761904Y-134523809D01*
X155714285Y-134428571D01*
X155666666Y-134380952D01*
X155571428Y-134333333D01*
X155380952Y-134333333D01*
X155285714Y-134380952D01*
X155238095Y-134428571D01*
X155190476Y-134523809D01*
%TO.C,C34*%
X134107142Y-120857142D02*
X134059523Y-120904761D01*
X133916666Y-120952380D01*
X133821428Y-120952380D01*
X133678571Y-120904761D01*
X133583333Y-120809523D01*
X133535714Y-120714285D01*
X133488095Y-120523809D01*
X133488095Y-120380952D01*
X133535714Y-120190476D01*
X133583333Y-120095238D01*
X133678571Y-120000000D01*
X133821428Y-119952380D01*
X133916666Y-119952380D01*
X134059523Y-120000000D01*
X134107142Y-120047619D01*
X134440476Y-119952380D02*
X135059523Y-119952380D01*
X134726190Y-120333333D01*
X134869047Y-120333333D01*
X134964285Y-120380952D01*
X135011904Y-120428571D01*
X135059523Y-120523809D01*
X135059523Y-120761904D01*
X135011904Y-120857142D01*
X134964285Y-120904761D01*
X134869047Y-120952380D01*
X134583333Y-120952380D01*
X134488095Y-120904761D01*
X134440476Y-120857142D01*
X135916666Y-120285714D02*
X135916666Y-120952380D01*
X135678571Y-119904761D02*
X135440476Y-120619047D01*
X136059523Y-120619047D01*
%TO.C,C33*%
X173607142Y-131107142D02*
X173559523Y-131154761D01*
X173416666Y-131202380D01*
X173321428Y-131202380D01*
X173178571Y-131154761D01*
X173083333Y-131059523D01*
X173035714Y-130964285D01*
X172988095Y-130773809D01*
X172988095Y-130630952D01*
X173035714Y-130440476D01*
X173083333Y-130345238D01*
X173178571Y-130250000D01*
X173321428Y-130202380D01*
X173416666Y-130202380D01*
X173559523Y-130250000D01*
X173607142Y-130297619D01*
X173940476Y-130202380D02*
X174559523Y-130202380D01*
X174226190Y-130583333D01*
X174369047Y-130583333D01*
X174464285Y-130630952D01*
X174511904Y-130678571D01*
X174559523Y-130773809D01*
X174559523Y-131011904D01*
X174511904Y-131107142D01*
X174464285Y-131154761D01*
X174369047Y-131202380D01*
X174083333Y-131202380D01*
X173988095Y-131154761D01*
X173940476Y-131107142D01*
X174892857Y-130202380D02*
X175511904Y-130202380D01*
X175178571Y-130583333D01*
X175321428Y-130583333D01*
X175416666Y-130630952D01*
X175464285Y-130678571D01*
X175511904Y-130773809D01*
X175511904Y-131011904D01*
X175464285Y-131107142D01*
X175416666Y-131154761D01*
X175321428Y-131202380D01*
X175035714Y-131202380D01*
X174940476Y-131154761D01*
X174892857Y-131107142D01*
%TO.C,C32*%
X181107142Y-130392857D02*
X181154761Y-130440476D01*
X181202380Y-130583333D01*
X181202380Y-130678571D01*
X181154761Y-130821428D01*
X181059523Y-130916666D01*
X180964285Y-130964285D01*
X180773809Y-131011904D01*
X180630952Y-131011904D01*
X180440476Y-130964285D01*
X180345238Y-130916666D01*
X180250000Y-130821428D01*
X180202380Y-130678571D01*
X180202380Y-130583333D01*
X180250000Y-130440476D01*
X180297619Y-130392857D01*
X180202380Y-130059523D02*
X180202380Y-129440476D01*
X180583333Y-129773809D01*
X180583333Y-129630952D01*
X180630952Y-129535714D01*
X180678571Y-129488095D01*
X180773809Y-129440476D01*
X181011904Y-129440476D01*
X181107142Y-129488095D01*
X181154761Y-129535714D01*
X181202380Y-129630952D01*
X181202380Y-129916666D01*
X181154761Y-130011904D01*
X181107142Y-130059523D01*
X180297619Y-129059523D02*
X180250000Y-129011904D01*
X180202380Y-128916666D01*
X180202380Y-128678571D01*
X180250000Y-128583333D01*
X180297619Y-128535714D01*
X180392857Y-128488095D01*
X180488095Y-128488095D01*
X180630952Y-128535714D01*
X181202380Y-129107142D01*
X181202380Y-128488095D01*
%TO.C,C24*%
X120807142Y-135297142D02*
X120759523Y-135344761D01*
X120616666Y-135392380D01*
X120521428Y-135392380D01*
X120378571Y-135344761D01*
X120283333Y-135249523D01*
X120235714Y-135154285D01*
X120188095Y-134963809D01*
X120188095Y-134820952D01*
X120235714Y-134630476D01*
X120283333Y-134535238D01*
X120378571Y-134440000D01*
X120521428Y-134392380D01*
X120616666Y-134392380D01*
X120759523Y-134440000D01*
X120807142Y-134487619D01*
X121188095Y-134487619D02*
X121235714Y-134440000D01*
X121330952Y-134392380D01*
X121569047Y-134392380D01*
X121664285Y-134440000D01*
X121711904Y-134487619D01*
X121759523Y-134582857D01*
X121759523Y-134678095D01*
X121711904Y-134820952D01*
X121140476Y-135392380D01*
X121759523Y-135392380D01*
X122616666Y-134725714D02*
X122616666Y-135392380D01*
X122378571Y-134344761D02*
X122140476Y-135059047D01*
X122759523Y-135059047D01*
%TO.C,C23*%
X131767142Y-137992857D02*
X131814761Y-138040476D01*
X131862380Y-138183333D01*
X131862380Y-138278571D01*
X131814761Y-138421428D01*
X131719523Y-138516666D01*
X131624285Y-138564285D01*
X131433809Y-138611904D01*
X131290952Y-138611904D01*
X131100476Y-138564285D01*
X131005238Y-138516666D01*
X130910000Y-138421428D01*
X130862380Y-138278571D01*
X130862380Y-138183333D01*
X130910000Y-138040476D01*
X130957619Y-137992857D01*
X130957619Y-137611904D02*
X130910000Y-137564285D01*
X130862380Y-137469047D01*
X130862380Y-137230952D01*
X130910000Y-137135714D01*
X130957619Y-137088095D01*
X131052857Y-137040476D01*
X131148095Y-137040476D01*
X131290952Y-137088095D01*
X131862380Y-137659523D01*
X131862380Y-137040476D01*
X130862380Y-136707142D02*
X130862380Y-136088095D01*
X131243333Y-136421428D01*
X131243333Y-136278571D01*
X131290952Y-136183333D01*
X131338571Y-136135714D01*
X131433809Y-136088095D01*
X131671904Y-136088095D01*
X131767142Y-136135714D01*
X131814761Y-136183333D01*
X131862380Y-136278571D01*
X131862380Y-136564285D01*
X131814761Y-136659523D01*
X131767142Y-136707142D01*
%TO.C,C22*%
X133635714Y-130535714D02*
X133597619Y-130573809D01*
X133483333Y-130611904D01*
X133407142Y-130611904D01*
X133292857Y-130573809D01*
X133216666Y-130497619D01*
X133178571Y-130421428D01*
X133140476Y-130269047D01*
X133140476Y-130154761D01*
X133178571Y-130002380D01*
X133216666Y-129926190D01*
X133292857Y-129850000D01*
X133407142Y-129811904D01*
X133483333Y-129811904D01*
X133597619Y-129850000D01*
X133635714Y-129888095D01*
X133940476Y-129888095D02*
X133978571Y-129850000D01*
X134054761Y-129811904D01*
X134245238Y-129811904D01*
X134321428Y-129850000D01*
X134359523Y-129888095D01*
X134397619Y-129964285D01*
X134397619Y-130040476D01*
X134359523Y-130154761D01*
X133902380Y-130611904D01*
X134397619Y-130611904D01*
X134702380Y-129888095D02*
X134740476Y-129850000D01*
X134816666Y-129811904D01*
X135007142Y-129811904D01*
X135083333Y-129850000D01*
X135121428Y-129888095D01*
X135159523Y-129964285D01*
X135159523Y-130040476D01*
X135121428Y-130154761D01*
X134664285Y-130611904D01*
X135159523Y-130611904D01*
%TO.C,C21*%
X125957142Y-141442857D02*
X126004761Y-141490476D01*
X126052380Y-141633333D01*
X126052380Y-141728571D01*
X126004761Y-141871428D01*
X125909523Y-141966666D01*
X125814285Y-142014285D01*
X125623809Y-142061904D01*
X125480952Y-142061904D01*
X125290476Y-142014285D01*
X125195238Y-141966666D01*
X125100000Y-141871428D01*
X125052380Y-141728571D01*
X125052380Y-141633333D01*
X125100000Y-141490476D01*
X125147619Y-141442857D01*
X125147619Y-141061904D02*
X125100000Y-141014285D01*
X125052380Y-140919047D01*
X125052380Y-140680952D01*
X125100000Y-140585714D01*
X125147619Y-140538095D01*
X125242857Y-140490476D01*
X125338095Y-140490476D01*
X125480952Y-140538095D01*
X126052380Y-141109523D01*
X126052380Y-140490476D01*
X126052380Y-139538095D02*
X126052380Y-140109523D01*
X126052380Y-139823809D02*
X125052380Y-139823809D01*
X125195238Y-139919047D01*
X125290476Y-140014285D01*
X125338095Y-140109523D01*
%TO.C,C20*%
X119007142Y-126657142D02*
X118959523Y-126704761D01*
X118816666Y-126752380D01*
X118721428Y-126752380D01*
X118578571Y-126704761D01*
X118483333Y-126609523D01*
X118435714Y-126514285D01*
X118388095Y-126323809D01*
X118388095Y-126180952D01*
X118435714Y-125990476D01*
X118483333Y-125895238D01*
X118578571Y-125800000D01*
X118721428Y-125752380D01*
X118816666Y-125752380D01*
X118959523Y-125800000D01*
X119007142Y-125847619D01*
X119388095Y-125847619D02*
X119435714Y-125800000D01*
X119530952Y-125752380D01*
X119769047Y-125752380D01*
X119864285Y-125800000D01*
X119911904Y-125847619D01*
X119959523Y-125942857D01*
X119959523Y-126038095D01*
X119911904Y-126180952D01*
X119340476Y-126752380D01*
X119959523Y-126752380D01*
X120578571Y-125752380D02*
X120673809Y-125752380D01*
X120769047Y-125800000D01*
X120816666Y-125847619D01*
X120864285Y-125942857D01*
X120911904Y-126133333D01*
X120911904Y-126371428D01*
X120864285Y-126561904D01*
X120816666Y-126657142D01*
X120769047Y-126704761D01*
X120673809Y-126752380D01*
X120578571Y-126752380D01*
X120483333Y-126704761D01*
X120435714Y-126657142D01*
X120388095Y-126561904D01*
X120340476Y-126371428D01*
X120340476Y-126133333D01*
X120388095Y-125942857D01*
X120435714Y-125847619D01*
X120483333Y-125800000D01*
X120578571Y-125752380D01*
%TO.C,C17*%
X183107142Y-136107142D02*
X183059523Y-136154761D01*
X182916666Y-136202380D01*
X182821428Y-136202380D01*
X182678571Y-136154761D01*
X182583333Y-136059523D01*
X182535714Y-135964285D01*
X182488095Y-135773809D01*
X182488095Y-135630952D01*
X182535714Y-135440476D01*
X182583333Y-135345238D01*
X182678571Y-135250000D01*
X182821428Y-135202380D01*
X182916666Y-135202380D01*
X183059523Y-135250000D01*
X183107142Y-135297619D01*
X184059523Y-136202380D02*
X183488095Y-136202380D01*
X183773809Y-136202380D02*
X183773809Y-135202380D01*
X183678571Y-135345238D01*
X183583333Y-135440476D01*
X183488095Y-135488095D01*
X184392857Y-135202380D02*
X185059523Y-135202380D01*
X184630952Y-136202380D01*
%TO.C,C16*%
X132857142Y-129392857D02*
X132904761Y-129440476D01*
X132952380Y-129583333D01*
X132952380Y-129678571D01*
X132904761Y-129821428D01*
X132809523Y-129916666D01*
X132714285Y-129964285D01*
X132523809Y-130011904D01*
X132380952Y-130011904D01*
X132190476Y-129964285D01*
X132095238Y-129916666D01*
X132000000Y-129821428D01*
X131952380Y-129678571D01*
X131952380Y-129583333D01*
X132000000Y-129440476D01*
X132047619Y-129392857D01*
X132952380Y-128440476D02*
X132952380Y-129011904D01*
X132952380Y-128726190D02*
X131952380Y-128726190D01*
X132095238Y-128821428D01*
X132190476Y-128916666D01*
X132238095Y-129011904D01*
X131952380Y-127583333D02*
X131952380Y-127773809D01*
X132000000Y-127869047D01*
X132047619Y-127916666D01*
X132190476Y-128011904D01*
X132380952Y-128059523D01*
X132761904Y-128059523D01*
X132857142Y-128011904D01*
X132904761Y-127964285D01*
X132952380Y-127869047D01*
X132952380Y-127678571D01*
X132904761Y-127583333D01*
X132857142Y-127535714D01*
X132761904Y-127488095D01*
X132523809Y-127488095D01*
X132428571Y-127535714D01*
X132380952Y-127583333D01*
X132333333Y-127678571D01*
X132333333Y-127869047D01*
X132380952Y-127964285D01*
X132428571Y-128011904D01*
X132523809Y-128059523D01*
%TO.C,C15*%
X125417142Y-124492857D02*
X125464761Y-124540476D01*
X125512380Y-124683333D01*
X125512380Y-124778571D01*
X125464761Y-124921428D01*
X125369523Y-125016666D01*
X125274285Y-125064285D01*
X125083809Y-125111904D01*
X124940952Y-125111904D01*
X124750476Y-125064285D01*
X124655238Y-125016666D01*
X124560000Y-124921428D01*
X124512380Y-124778571D01*
X124512380Y-124683333D01*
X124560000Y-124540476D01*
X124607619Y-124492857D01*
X125512380Y-123540476D02*
X125512380Y-124111904D01*
X125512380Y-123826190D02*
X124512380Y-123826190D01*
X124655238Y-123921428D01*
X124750476Y-124016666D01*
X124798095Y-124111904D01*
X124512380Y-122635714D02*
X124512380Y-123111904D01*
X124988571Y-123159523D01*
X124940952Y-123111904D01*
X124893333Y-123016666D01*
X124893333Y-122778571D01*
X124940952Y-122683333D01*
X124988571Y-122635714D01*
X125083809Y-122588095D01*
X125321904Y-122588095D01*
X125417142Y-122635714D01*
X125464761Y-122683333D01*
X125512380Y-122778571D01*
X125512380Y-123016666D01*
X125464761Y-123111904D01*
X125417142Y-123159523D01*
%TO.C,C14*%
X165107142Y-145892857D02*
X165154761Y-145940476D01*
X165202380Y-146083333D01*
X165202380Y-146178571D01*
X165154761Y-146321428D01*
X165059523Y-146416666D01*
X164964285Y-146464285D01*
X164773809Y-146511904D01*
X164630952Y-146511904D01*
X164440476Y-146464285D01*
X164345238Y-146416666D01*
X164250000Y-146321428D01*
X164202380Y-146178571D01*
X164202380Y-146083333D01*
X164250000Y-145940476D01*
X164297619Y-145892857D01*
X165202380Y-144940476D02*
X165202380Y-145511904D01*
X165202380Y-145226190D02*
X164202380Y-145226190D01*
X164345238Y-145321428D01*
X164440476Y-145416666D01*
X164488095Y-145511904D01*
X164535714Y-144083333D02*
X165202380Y-144083333D01*
X164154761Y-144321428D02*
X164869047Y-144559523D01*
X164869047Y-143940476D01*
%TO.C,C3*%
X125507142Y-148516666D02*
X125554761Y-148564285D01*
X125602380Y-148707142D01*
X125602380Y-148802380D01*
X125554761Y-148945238D01*
X125459523Y-149040476D01*
X125364285Y-149088095D01*
X125173809Y-149135714D01*
X125030952Y-149135714D01*
X124840476Y-149088095D01*
X124745238Y-149040476D01*
X124650000Y-148945238D01*
X124602380Y-148802380D01*
X124602380Y-148707142D01*
X124650000Y-148564285D01*
X124697619Y-148516666D01*
X124602380Y-148183333D02*
X124602380Y-147564285D01*
X124983333Y-147897619D01*
X124983333Y-147754761D01*
X125030952Y-147659523D01*
X125078571Y-147611904D01*
X125173809Y-147564285D01*
X125411904Y-147564285D01*
X125507142Y-147611904D01*
X125554761Y-147659523D01*
X125602380Y-147754761D01*
X125602380Y-148040476D01*
X125554761Y-148135714D01*
X125507142Y-148183333D01*
%TO.C,C2*%
X108783333Y-120357142D02*
X108735714Y-120404761D01*
X108592857Y-120452380D01*
X108497619Y-120452380D01*
X108354761Y-120404761D01*
X108259523Y-120309523D01*
X108211904Y-120214285D01*
X108164285Y-120023809D01*
X108164285Y-119880952D01*
X108211904Y-119690476D01*
X108259523Y-119595238D01*
X108354761Y-119500000D01*
X108497619Y-119452380D01*
X108592857Y-119452380D01*
X108735714Y-119500000D01*
X108783333Y-119547619D01*
X109164285Y-119547619D02*
X109211904Y-119500000D01*
X109307142Y-119452380D01*
X109545238Y-119452380D01*
X109640476Y-119500000D01*
X109688095Y-119547619D01*
X109735714Y-119642857D01*
X109735714Y-119738095D01*
X109688095Y-119880952D01*
X109116666Y-120452380D01*
X109735714Y-120452380D01*
%TO.C,C1*%
X165833333Y-139607142D02*
X165785714Y-139654761D01*
X165642857Y-139702380D01*
X165547619Y-139702380D01*
X165404761Y-139654761D01*
X165309523Y-139559523D01*
X165261904Y-139464285D01*
X165214285Y-139273809D01*
X165214285Y-139130952D01*
X165261904Y-138940476D01*
X165309523Y-138845238D01*
X165404761Y-138750000D01*
X165547619Y-138702380D01*
X165642857Y-138702380D01*
X165785714Y-138750000D01*
X165833333Y-138797619D01*
X166785714Y-139702380D02*
X166214285Y-139702380D01*
X166500000Y-139702380D02*
X166500000Y-138702380D01*
X166404761Y-138845238D01*
X166309523Y-138940476D01*
X166214285Y-138988095D01*
%TO.C,Q3*%
X182404761Y-130047619D02*
X182309523Y-130000000D01*
X182214285Y-129904761D01*
X182071428Y-129761904D01*
X181976190Y-129714285D01*
X181880952Y-129714285D01*
X181928571Y-129952380D02*
X181833333Y-129904761D01*
X181738095Y-129809523D01*
X181690476Y-129619047D01*
X181690476Y-129285714D01*
X181738095Y-129095238D01*
X181833333Y-129000000D01*
X181928571Y-128952380D01*
X182119047Y-128952380D01*
X182214285Y-129000000D01*
X182309523Y-129095238D01*
X182357142Y-129285714D01*
X182357142Y-129619047D01*
X182309523Y-129809523D01*
X182214285Y-129904761D01*
X182119047Y-129952380D01*
X181928571Y-129952380D01*
X182690476Y-128952380D02*
X183309523Y-128952380D01*
X182976190Y-129333333D01*
X183119047Y-129333333D01*
X183214285Y-129380952D01*
X183261904Y-129428571D01*
X183309523Y-129523809D01*
X183309523Y-129761904D01*
X183261904Y-129857142D01*
X183214285Y-129904761D01*
X183119047Y-129952380D01*
X182833333Y-129952380D01*
X182738095Y-129904761D01*
X182690476Y-129857142D01*
%TO.C,Y1*%
X140326190Y-131576190D02*
X140802380Y-131576190D01*
X139802380Y-131909523D02*
X140326190Y-131576190D01*
X139802380Y-131242857D01*
X140802380Y-130385714D02*
X140802380Y-130957142D01*
X140802380Y-130671428D02*
X139802380Y-130671428D01*
X139945238Y-130766666D01*
X140040476Y-130861904D01*
X140088095Y-130957142D01*
%TO.C,U7*%
X113488095Y-131602380D02*
X113488095Y-132411904D01*
X113535714Y-132507142D01*
X113583333Y-132554761D01*
X113678571Y-132602380D01*
X113869047Y-132602380D01*
X113964285Y-132554761D01*
X114011904Y-132507142D01*
X114059523Y-132411904D01*
X114059523Y-131602380D01*
X114440476Y-131602380D02*
X115107142Y-131602380D01*
X114678571Y-132602380D01*
%TO.C,U6*%
X130452380Y-112011904D02*
X131261904Y-112011904D01*
X131357142Y-111964285D01*
X131404761Y-111916666D01*
X131452380Y-111821428D01*
X131452380Y-111630952D01*
X131404761Y-111535714D01*
X131357142Y-111488095D01*
X131261904Y-111440476D01*
X130452380Y-111440476D01*
X130452380Y-110535714D02*
X130452380Y-110726190D01*
X130500000Y-110821428D01*
X130547619Y-110869047D01*
X130690476Y-110964285D01*
X130880952Y-111011904D01*
X131261904Y-111011904D01*
X131357142Y-110964285D01*
X131404761Y-110916666D01*
X131452380Y-110821428D01*
X131452380Y-110630952D01*
X131404761Y-110535714D01*
X131357142Y-110488095D01*
X131261904Y-110440476D01*
X131023809Y-110440476D01*
X130928571Y-110488095D01*
X130880952Y-110535714D01*
X130833333Y-110630952D01*
X130833333Y-110821428D01*
X130880952Y-110916666D01*
X130928571Y-110964285D01*
X131023809Y-111011904D01*
%TO.C,U5*%
X150902380Y-114161904D02*
X151711904Y-114161904D01*
X151807142Y-114114285D01*
X151854761Y-114066666D01*
X151902380Y-113971428D01*
X151902380Y-113780952D01*
X151854761Y-113685714D01*
X151807142Y-113638095D01*
X151711904Y-113590476D01*
X150902380Y-113590476D01*
X150902380Y-112638095D02*
X150902380Y-113114285D01*
X151378571Y-113161904D01*
X151330952Y-113114285D01*
X151283333Y-113019047D01*
X151283333Y-112780952D01*
X151330952Y-112685714D01*
X151378571Y-112638095D01*
X151473809Y-112590476D01*
X151711904Y-112590476D01*
X151807142Y-112638095D01*
X151854761Y-112685714D01*
X151902380Y-112780952D01*
X151902380Y-113019047D01*
X151854761Y-113114285D01*
X151807142Y-113161904D01*
%TO.C,U4*%
X128488095Y-124702380D02*
X128488095Y-125511904D01*
X128535714Y-125607142D01*
X128583333Y-125654761D01*
X128678571Y-125702380D01*
X128869047Y-125702380D01*
X128964285Y-125654761D01*
X129011904Y-125607142D01*
X129059523Y-125511904D01*
X129059523Y-124702380D01*
X129964285Y-125035714D02*
X129964285Y-125702380D01*
X129726190Y-124654761D02*
X129488095Y-125369047D01*
X130107142Y-125369047D01*
%TO.C,U3*%
X186738095Y-138952380D02*
X186738095Y-139761904D01*
X186785714Y-139857142D01*
X186833333Y-139904761D01*
X186928571Y-139952380D01*
X187119047Y-139952380D01*
X187214285Y-139904761D01*
X187261904Y-139857142D01*
X187309523Y-139761904D01*
X187309523Y-138952380D01*
X187690476Y-138952380D02*
X188309523Y-138952380D01*
X187976190Y-139333333D01*
X188119047Y-139333333D01*
X188214285Y-139380952D01*
X188261904Y-139428571D01*
X188309523Y-139523809D01*
X188309523Y-139761904D01*
X188261904Y-139857142D01*
X188214285Y-139904761D01*
X188119047Y-139952380D01*
X187833333Y-139952380D01*
X187738095Y-139904761D01*
X187690476Y-139857142D01*
%TO.C,U2*%
X158238095Y-146452380D02*
X158238095Y-147261904D01*
X158285714Y-147357142D01*
X158333333Y-147404761D01*
X158428571Y-147452380D01*
X158619047Y-147452380D01*
X158714285Y-147404761D01*
X158761904Y-147357142D01*
X158809523Y-147261904D01*
X158809523Y-146452380D01*
X159238095Y-146547619D02*
X159285714Y-146500000D01*
X159380952Y-146452380D01*
X159619047Y-146452380D01*
X159714285Y-146500000D01*
X159761904Y-146547619D01*
X159809523Y-146642857D01*
X159809523Y-146738095D01*
X159761904Y-146880952D01*
X159190476Y-147452380D01*
X159809523Y-147452380D01*
%TO.C,TP4*%
X151988095Y-137452380D02*
X152559523Y-137452380D01*
X152273809Y-138452380D02*
X152273809Y-137452380D01*
X152892857Y-138452380D02*
X152892857Y-137452380D01*
X153273809Y-137452380D01*
X153369047Y-137500000D01*
X153416666Y-137547619D01*
X153464285Y-137642857D01*
X153464285Y-137785714D01*
X153416666Y-137880952D01*
X153369047Y-137928571D01*
X153273809Y-137976190D01*
X152892857Y-137976190D01*
X154321428Y-137785714D02*
X154321428Y-138452380D01*
X154083333Y-137404761D02*
X153845238Y-138119047D01*
X154464285Y-138119047D01*
%TO.C,TP3*%
X156488095Y-129952380D02*
X157059523Y-129952380D01*
X156773809Y-130952380D02*
X156773809Y-129952380D01*
X157392857Y-130952380D02*
X157392857Y-129952380D01*
X157773809Y-129952380D01*
X157869047Y-130000000D01*
X157916666Y-130047619D01*
X157964285Y-130142857D01*
X157964285Y-130285714D01*
X157916666Y-130380952D01*
X157869047Y-130428571D01*
X157773809Y-130476190D01*
X157392857Y-130476190D01*
X158297619Y-129952380D02*
X158916666Y-129952380D01*
X158583333Y-130333333D01*
X158726190Y-130333333D01*
X158821428Y-130380952D01*
X158869047Y-130428571D01*
X158916666Y-130523809D01*
X158916666Y-130761904D01*
X158869047Y-130857142D01*
X158821428Y-130904761D01*
X158726190Y-130952380D01*
X158440476Y-130952380D01*
X158345238Y-130904761D01*
X158297619Y-130857142D01*
%TO.C,TP2*%
X156238095Y-126702380D02*
X156809523Y-126702380D01*
X156523809Y-127702380D02*
X156523809Y-126702380D01*
X157142857Y-127702380D02*
X157142857Y-126702380D01*
X157523809Y-126702380D01*
X157619047Y-126750000D01*
X157666666Y-126797619D01*
X157714285Y-126892857D01*
X157714285Y-127035714D01*
X157666666Y-127130952D01*
X157619047Y-127178571D01*
X157523809Y-127226190D01*
X157142857Y-127226190D01*
X158095238Y-126797619D02*
X158142857Y-126750000D01*
X158238095Y-126702380D01*
X158476190Y-126702380D01*
X158571428Y-126750000D01*
X158619047Y-126797619D01*
X158666666Y-126892857D01*
X158666666Y-126988095D01*
X158619047Y-127130952D01*
X158047619Y-127702380D01*
X158666666Y-127702380D01*
%TO.C,TP1*%
X172988095Y-146952380D02*
X173559523Y-146952380D01*
X173273809Y-147952380D02*
X173273809Y-146952380D01*
X173892857Y-147952380D02*
X173892857Y-146952380D01*
X174273809Y-146952380D01*
X174369047Y-147000000D01*
X174416666Y-147047619D01*
X174464285Y-147142857D01*
X174464285Y-147285714D01*
X174416666Y-147380952D01*
X174369047Y-147428571D01*
X174273809Y-147476190D01*
X173892857Y-147476190D01*
X175416666Y-147952380D02*
X174845238Y-147952380D01*
X175130952Y-147952380D02*
X175130952Y-146952380D01*
X175035714Y-147095238D01*
X174940476Y-147190476D01*
X174845238Y-147238095D01*
%TO.C,SW1*%
X145166666Y-101404761D02*
X145309523Y-101452380D01*
X145547619Y-101452380D01*
X145642857Y-101404761D01*
X145690476Y-101357142D01*
X145738095Y-101261904D01*
X145738095Y-101166666D01*
X145690476Y-101071428D01*
X145642857Y-101023809D01*
X145547619Y-100976190D01*
X145357142Y-100928571D01*
X145261904Y-100880952D01*
X145214285Y-100833333D01*
X145166666Y-100738095D01*
X145166666Y-100642857D01*
X145214285Y-100547619D01*
X145261904Y-100500000D01*
X145357142Y-100452380D01*
X145595238Y-100452380D01*
X145738095Y-100500000D01*
X146071428Y-100452380D02*
X146309523Y-101452380D01*
X146500000Y-100738095D01*
X146690476Y-101452380D01*
X146928571Y-100452380D01*
X147833333Y-101452380D02*
X147261904Y-101452380D01*
X147547619Y-101452380D02*
X147547619Y-100452380D01*
X147452380Y-100595238D01*
X147357142Y-100690476D01*
X147261904Y-100738095D01*
%TO.C,R33*%
X121361904Y-130264285D02*
X120980952Y-130530952D01*
X121361904Y-130721428D02*
X120561904Y-130721428D01*
X120561904Y-130416666D01*
X120600000Y-130340476D01*
X120638095Y-130302380D01*
X120714285Y-130264285D01*
X120828571Y-130264285D01*
X120904761Y-130302380D01*
X120942857Y-130340476D01*
X120980952Y-130416666D01*
X120980952Y-130721428D01*
X120561904Y-129997619D02*
X120561904Y-129502380D01*
X120866666Y-129769047D01*
X120866666Y-129654761D01*
X120904761Y-129578571D01*
X120942857Y-129540476D01*
X121019047Y-129502380D01*
X121209523Y-129502380D01*
X121285714Y-129540476D01*
X121323809Y-129578571D01*
X121361904Y-129654761D01*
X121361904Y-129883333D01*
X121323809Y-129959523D01*
X121285714Y-129997619D01*
X120561904Y-129235714D02*
X120561904Y-128740476D01*
X120866666Y-129007142D01*
X120866666Y-128892857D01*
X120904761Y-128816666D01*
X120942857Y-128778571D01*
X121019047Y-128740476D01*
X121209523Y-128740476D01*
X121285714Y-128778571D01*
X121323809Y-128816666D01*
X121361904Y-128892857D01*
X121361904Y-129121428D01*
X121323809Y-129197619D01*
X121285714Y-129235714D01*
%TO.C,R32*%
X178452380Y-140142857D02*
X177976190Y-140476190D01*
X178452380Y-140714285D02*
X177452380Y-140714285D01*
X177452380Y-140333333D01*
X177500000Y-140238095D01*
X177547619Y-140190476D01*
X177642857Y-140142857D01*
X177785714Y-140142857D01*
X177880952Y-140190476D01*
X177928571Y-140238095D01*
X177976190Y-140333333D01*
X177976190Y-140714285D01*
X177452380Y-139809523D02*
X177452380Y-139190476D01*
X177833333Y-139523809D01*
X177833333Y-139380952D01*
X177880952Y-139285714D01*
X177928571Y-139238095D01*
X178023809Y-139190476D01*
X178261904Y-139190476D01*
X178357142Y-139238095D01*
X178404761Y-139285714D01*
X178452380Y-139380952D01*
X178452380Y-139666666D01*
X178404761Y-139761904D01*
X178357142Y-139809523D01*
X177547619Y-138809523D02*
X177500000Y-138761904D01*
X177452380Y-138666666D01*
X177452380Y-138428571D01*
X177500000Y-138333333D01*
X177547619Y-138285714D01*
X177642857Y-138238095D01*
X177738095Y-138238095D01*
X177880952Y-138285714D01*
X178452380Y-138857142D01*
X178452380Y-138238095D01*
%TO.C,R31*%
X169357142Y-121452380D02*
X169023809Y-120976190D01*
X168785714Y-121452380D02*
X168785714Y-120452380D01*
X169166666Y-120452380D01*
X169261904Y-120500000D01*
X169309523Y-120547619D01*
X169357142Y-120642857D01*
X169357142Y-120785714D01*
X169309523Y-120880952D01*
X169261904Y-120928571D01*
X169166666Y-120976190D01*
X168785714Y-120976190D01*
X169690476Y-120452380D02*
X170309523Y-120452380D01*
X169976190Y-120833333D01*
X170119047Y-120833333D01*
X170214285Y-120880952D01*
X170261904Y-120928571D01*
X170309523Y-121023809D01*
X170309523Y-121261904D01*
X170261904Y-121357142D01*
X170214285Y-121404761D01*
X170119047Y-121452380D01*
X169833333Y-121452380D01*
X169738095Y-121404761D01*
X169690476Y-121357142D01*
X171261904Y-121452380D02*
X170690476Y-121452380D01*
X170976190Y-121452380D02*
X170976190Y-120452380D01*
X170880952Y-120595238D01*
X170785714Y-120690476D01*
X170690476Y-120738095D01*
%TO.C,R30*%
X164957142Y-122622380D02*
X164623809Y-122146190D01*
X164385714Y-122622380D02*
X164385714Y-121622380D01*
X164766666Y-121622380D01*
X164861904Y-121670000D01*
X164909523Y-121717619D01*
X164957142Y-121812857D01*
X164957142Y-121955714D01*
X164909523Y-122050952D01*
X164861904Y-122098571D01*
X164766666Y-122146190D01*
X164385714Y-122146190D01*
X165290476Y-121622380D02*
X165909523Y-121622380D01*
X165576190Y-122003333D01*
X165719047Y-122003333D01*
X165814285Y-122050952D01*
X165861904Y-122098571D01*
X165909523Y-122193809D01*
X165909523Y-122431904D01*
X165861904Y-122527142D01*
X165814285Y-122574761D01*
X165719047Y-122622380D01*
X165433333Y-122622380D01*
X165338095Y-122574761D01*
X165290476Y-122527142D01*
X166528571Y-121622380D02*
X166623809Y-121622380D01*
X166719047Y-121670000D01*
X166766666Y-121717619D01*
X166814285Y-121812857D01*
X166861904Y-122003333D01*
X166861904Y-122241428D01*
X166814285Y-122431904D01*
X166766666Y-122527142D01*
X166719047Y-122574761D01*
X166623809Y-122622380D01*
X166528571Y-122622380D01*
X166433333Y-122574761D01*
X166385714Y-122527142D01*
X166338095Y-122431904D01*
X166290476Y-122241428D01*
X166290476Y-122003333D01*
X166338095Y-121812857D01*
X166385714Y-121717619D01*
X166433333Y-121670000D01*
X166528571Y-121622380D01*
%TO.C,R29*%
X171857142Y-110702380D02*
X171523809Y-110226190D01*
X171285714Y-110702380D02*
X171285714Y-109702380D01*
X171666666Y-109702380D01*
X171761904Y-109750000D01*
X171809523Y-109797619D01*
X171857142Y-109892857D01*
X171857142Y-110035714D01*
X171809523Y-110130952D01*
X171761904Y-110178571D01*
X171666666Y-110226190D01*
X171285714Y-110226190D01*
X172238095Y-109797619D02*
X172285714Y-109750000D01*
X172380952Y-109702380D01*
X172619047Y-109702380D01*
X172714285Y-109750000D01*
X172761904Y-109797619D01*
X172809523Y-109892857D01*
X172809523Y-109988095D01*
X172761904Y-110130952D01*
X172190476Y-110702380D01*
X172809523Y-110702380D01*
X173285714Y-110702380D02*
X173476190Y-110702380D01*
X173571428Y-110654761D01*
X173619047Y-110607142D01*
X173714285Y-110464285D01*
X173761904Y-110273809D01*
X173761904Y-109892857D01*
X173714285Y-109797619D01*
X173666666Y-109750000D01*
X173571428Y-109702380D01*
X173380952Y-109702380D01*
X173285714Y-109750000D01*
X173238095Y-109797619D01*
X173190476Y-109892857D01*
X173190476Y-110130952D01*
X173238095Y-110226190D01*
X173285714Y-110273809D01*
X173380952Y-110321428D01*
X173571428Y-110321428D01*
X173666666Y-110273809D01*
X173714285Y-110226190D01*
X173761904Y-110130952D01*
%TO.C,R28*%
X170107142Y-108952380D02*
X169773809Y-108476190D01*
X169535714Y-108952380D02*
X169535714Y-107952380D01*
X169916666Y-107952380D01*
X170011904Y-108000000D01*
X170059523Y-108047619D01*
X170107142Y-108142857D01*
X170107142Y-108285714D01*
X170059523Y-108380952D01*
X170011904Y-108428571D01*
X169916666Y-108476190D01*
X169535714Y-108476190D01*
X170488095Y-108047619D02*
X170535714Y-108000000D01*
X170630952Y-107952380D01*
X170869047Y-107952380D01*
X170964285Y-108000000D01*
X171011904Y-108047619D01*
X171059523Y-108142857D01*
X171059523Y-108238095D01*
X171011904Y-108380952D01*
X170440476Y-108952380D01*
X171059523Y-108952380D01*
X171630952Y-108380952D02*
X171535714Y-108333333D01*
X171488095Y-108285714D01*
X171440476Y-108190476D01*
X171440476Y-108142857D01*
X171488095Y-108047619D01*
X171535714Y-108000000D01*
X171630952Y-107952380D01*
X171821428Y-107952380D01*
X171916666Y-108000000D01*
X171964285Y-108047619D01*
X172011904Y-108142857D01*
X172011904Y-108190476D01*
X171964285Y-108285714D01*
X171916666Y-108333333D01*
X171821428Y-108380952D01*
X171630952Y-108380952D01*
X171535714Y-108428571D01*
X171488095Y-108476190D01*
X171440476Y-108571428D01*
X171440476Y-108761904D01*
X171488095Y-108857142D01*
X171535714Y-108904761D01*
X171630952Y-108952380D01*
X171821428Y-108952380D01*
X171916666Y-108904761D01*
X171964285Y-108857142D01*
X172011904Y-108761904D01*
X172011904Y-108571428D01*
X171964285Y-108476190D01*
X171916666Y-108428571D01*
X171821428Y-108380952D01*
%TO.C,R27*%
X162857142Y-132452380D02*
X162523809Y-131976190D01*
X162285714Y-132452380D02*
X162285714Y-131452380D01*
X162666666Y-131452380D01*
X162761904Y-131500000D01*
X162809523Y-131547619D01*
X162857142Y-131642857D01*
X162857142Y-131785714D01*
X162809523Y-131880952D01*
X162761904Y-131928571D01*
X162666666Y-131976190D01*
X162285714Y-131976190D01*
X163238095Y-131547619D02*
X163285714Y-131500000D01*
X163380952Y-131452380D01*
X163619047Y-131452380D01*
X163714285Y-131500000D01*
X163761904Y-131547619D01*
X163809523Y-131642857D01*
X163809523Y-131738095D01*
X163761904Y-131880952D01*
X163190476Y-132452380D01*
X163809523Y-132452380D01*
X164142857Y-131452380D02*
X164809523Y-131452380D01*
X164380952Y-132452380D01*
%TO.C,R26*%
X157857142Y-125952380D02*
X157523809Y-125476190D01*
X157285714Y-125952380D02*
X157285714Y-124952380D01*
X157666666Y-124952380D01*
X157761904Y-125000000D01*
X157809523Y-125047619D01*
X157857142Y-125142857D01*
X157857142Y-125285714D01*
X157809523Y-125380952D01*
X157761904Y-125428571D01*
X157666666Y-125476190D01*
X157285714Y-125476190D01*
X158238095Y-125047619D02*
X158285714Y-125000000D01*
X158380952Y-124952380D01*
X158619047Y-124952380D01*
X158714285Y-125000000D01*
X158761904Y-125047619D01*
X158809523Y-125142857D01*
X158809523Y-125238095D01*
X158761904Y-125380952D01*
X158190476Y-125952380D01*
X158809523Y-125952380D01*
X159666666Y-124952380D02*
X159476190Y-124952380D01*
X159380952Y-125000000D01*
X159333333Y-125047619D01*
X159238095Y-125190476D01*
X159190476Y-125380952D01*
X159190476Y-125761904D01*
X159238095Y-125857142D01*
X159285714Y-125904761D01*
X159380952Y-125952380D01*
X159571428Y-125952380D01*
X159666666Y-125904761D01*
X159714285Y-125857142D01*
X159761904Y-125761904D01*
X159761904Y-125523809D01*
X159714285Y-125428571D01*
X159666666Y-125380952D01*
X159571428Y-125333333D01*
X159380952Y-125333333D01*
X159285714Y-125380952D01*
X159238095Y-125428571D01*
X159190476Y-125523809D01*
%TO.C,R25*%
X151452380Y-104892857D02*
X150976190Y-105226190D01*
X151452380Y-105464285D02*
X150452380Y-105464285D01*
X150452380Y-105083333D01*
X150500000Y-104988095D01*
X150547619Y-104940476D01*
X150642857Y-104892857D01*
X150785714Y-104892857D01*
X150880952Y-104940476D01*
X150928571Y-104988095D01*
X150976190Y-105083333D01*
X150976190Y-105464285D01*
X150547619Y-104511904D02*
X150500000Y-104464285D01*
X150452380Y-104369047D01*
X150452380Y-104130952D01*
X150500000Y-104035714D01*
X150547619Y-103988095D01*
X150642857Y-103940476D01*
X150738095Y-103940476D01*
X150880952Y-103988095D01*
X151452380Y-104559523D01*
X151452380Y-103940476D01*
X150452380Y-103035714D02*
X150452380Y-103511904D01*
X150928571Y-103559523D01*
X150880952Y-103511904D01*
X150833333Y-103416666D01*
X150833333Y-103178571D01*
X150880952Y-103083333D01*
X150928571Y-103035714D01*
X151023809Y-102988095D01*
X151261904Y-102988095D01*
X151357142Y-103035714D01*
X151404761Y-103083333D01*
X151452380Y-103178571D01*
X151452380Y-103416666D01*
X151404761Y-103511904D01*
X151357142Y-103559523D01*
%TO.C,R24*%
X123357142Y-116452380D02*
X123023809Y-115976190D01*
X122785714Y-116452380D02*
X122785714Y-115452380D01*
X123166666Y-115452380D01*
X123261904Y-115500000D01*
X123309523Y-115547619D01*
X123357142Y-115642857D01*
X123357142Y-115785714D01*
X123309523Y-115880952D01*
X123261904Y-115928571D01*
X123166666Y-115976190D01*
X122785714Y-115976190D01*
X123738095Y-115547619D02*
X123785714Y-115500000D01*
X123880952Y-115452380D01*
X124119047Y-115452380D01*
X124214285Y-115500000D01*
X124261904Y-115547619D01*
X124309523Y-115642857D01*
X124309523Y-115738095D01*
X124261904Y-115880952D01*
X123690476Y-116452380D01*
X124309523Y-116452380D01*
X125166666Y-115785714D02*
X125166666Y-116452380D01*
X124928571Y-115404761D02*
X124690476Y-116119047D01*
X125309523Y-116119047D01*
%TO.C,R23*%
X149702380Y-104892857D02*
X149226190Y-105226190D01*
X149702380Y-105464285D02*
X148702380Y-105464285D01*
X148702380Y-105083333D01*
X148750000Y-104988095D01*
X148797619Y-104940476D01*
X148892857Y-104892857D01*
X149035714Y-104892857D01*
X149130952Y-104940476D01*
X149178571Y-104988095D01*
X149226190Y-105083333D01*
X149226190Y-105464285D01*
X148797619Y-104511904D02*
X148750000Y-104464285D01*
X148702380Y-104369047D01*
X148702380Y-104130952D01*
X148750000Y-104035714D01*
X148797619Y-103988095D01*
X148892857Y-103940476D01*
X148988095Y-103940476D01*
X149130952Y-103988095D01*
X149702380Y-104559523D01*
X149702380Y-103940476D01*
X148702380Y-103607142D02*
X148702380Y-102988095D01*
X149083333Y-103321428D01*
X149083333Y-103178571D01*
X149130952Y-103083333D01*
X149178571Y-103035714D01*
X149273809Y-102988095D01*
X149511904Y-102988095D01*
X149607142Y-103035714D01*
X149654761Y-103083333D01*
X149702380Y-103178571D01*
X149702380Y-103464285D01*
X149654761Y-103559523D01*
X149607142Y-103607142D01*
%TO.C,R22*%
X154452380Y-104892857D02*
X153976190Y-105226190D01*
X154452380Y-105464285D02*
X153452380Y-105464285D01*
X153452380Y-105083333D01*
X153500000Y-104988095D01*
X153547619Y-104940476D01*
X153642857Y-104892857D01*
X153785714Y-104892857D01*
X153880952Y-104940476D01*
X153928571Y-104988095D01*
X153976190Y-105083333D01*
X153976190Y-105464285D01*
X153547619Y-104511904D02*
X153500000Y-104464285D01*
X153452380Y-104369047D01*
X153452380Y-104130952D01*
X153500000Y-104035714D01*
X153547619Y-103988095D01*
X153642857Y-103940476D01*
X153738095Y-103940476D01*
X153880952Y-103988095D01*
X154452380Y-104559523D01*
X154452380Y-103940476D01*
X153547619Y-103559523D02*
X153500000Y-103511904D01*
X153452380Y-103416666D01*
X153452380Y-103178571D01*
X153500000Y-103083333D01*
X153547619Y-103035714D01*
X153642857Y-102988095D01*
X153738095Y-102988095D01*
X153880952Y-103035714D01*
X154452380Y-103607142D01*
X154452380Y-102988095D01*
%TO.C,R21*%
X155952380Y-104892857D02*
X155476190Y-105226190D01*
X155952380Y-105464285D02*
X154952380Y-105464285D01*
X154952380Y-105083333D01*
X155000000Y-104988095D01*
X155047619Y-104940476D01*
X155142857Y-104892857D01*
X155285714Y-104892857D01*
X155380952Y-104940476D01*
X155428571Y-104988095D01*
X155476190Y-105083333D01*
X155476190Y-105464285D01*
X155047619Y-104511904D02*
X155000000Y-104464285D01*
X154952380Y-104369047D01*
X154952380Y-104130952D01*
X155000000Y-104035714D01*
X155047619Y-103988095D01*
X155142857Y-103940476D01*
X155238095Y-103940476D01*
X155380952Y-103988095D01*
X155952380Y-104559523D01*
X155952380Y-103940476D01*
X155952380Y-102988095D02*
X155952380Y-103559523D01*
X155952380Y-103273809D02*
X154952380Y-103273809D01*
X155095238Y-103369047D01*
X155190476Y-103464285D01*
X155238095Y-103559523D01*
%TO.C,R20*%
X122607142Y-117702380D02*
X122273809Y-117226190D01*
X122035714Y-117702380D02*
X122035714Y-116702380D01*
X122416666Y-116702380D01*
X122511904Y-116750000D01*
X122559523Y-116797619D01*
X122607142Y-116892857D01*
X122607142Y-117035714D01*
X122559523Y-117130952D01*
X122511904Y-117178571D01*
X122416666Y-117226190D01*
X122035714Y-117226190D01*
X122988095Y-116797619D02*
X123035714Y-116750000D01*
X123130952Y-116702380D01*
X123369047Y-116702380D01*
X123464285Y-116750000D01*
X123511904Y-116797619D01*
X123559523Y-116892857D01*
X123559523Y-116988095D01*
X123511904Y-117130952D01*
X122940476Y-117702380D01*
X123559523Y-117702380D01*
X124178571Y-116702380D02*
X124273809Y-116702380D01*
X124369047Y-116750000D01*
X124416666Y-116797619D01*
X124464285Y-116892857D01*
X124511904Y-117083333D01*
X124511904Y-117321428D01*
X124464285Y-117511904D01*
X124416666Y-117607142D01*
X124369047Y-117654761D01*
X124273809Y-117702380D01*
X124178571Y-117702380D01*
X124083333Y-117654761D01*
X124035714Y-117607142D01*
X123988095Y-117511904D01*
X123940476Y-117321428D01*
X123940476Y-117083333D01*
X123988095Y-116892857D01*
X124035714Y-116797619D01*
X124083333Y-116750000D01*
X124178571Y-116702380D01*
%TO.C,R19*%
X184702380Y-129642857D02*
X184226190Y-129976190D01*
X184702380Y-130214285D02*
X183702380Y-130214285D01*
X183702380Y-129833333D01*
X183750000Y-129738095D01*
X183797619Y-129690476D01*
X183892857Y-129642857D01*
X184035714Y-129642857D01*
X184130952Y-129690476D01*
X184178571Y-129738095D01*
X184226190Y-129833333D01*
X184226190Y-130214285D01*
X184702380Y-128690476D02*
X184702380Y-129261904D01*
X184702380Y-128976190D02*
X183702380Y-128976190D01*
X183845238Y-129071428D01*
X183940476Y-129166666D01*
X183988095Y-129261904D01*
X184702380Y-128214285D02*
X184702380Y-128023809D01*
X184654761Y-127928571D01*
X184607142Y-127880952D01*
X184464285Y-127785714D01*
X184273809Y-127738095D01*
X183892857Y-127738095D01*
X183797619Y-127785714D01*
X183750000Y-127833333D01*
X183702380Y-127928571D01*
X183702380Y-128119047D01*
X183750000Y-128214285D01*
X183797619Y-128261904D01*
X183892857Y-128309523D01*
X184130952Y-128309523D01*
X184226190Y-128261904D01*
X184273809Y-128214285D01*
X184321428Y-128119047D01*
X184321428Y-127928571D01*
X184273809Y-127833333D01*
X184226190Y-127785714D01*
X184130952Y-127738095D01*
%TO.C,R18*%
X180357142Y-134662380D02*
X180023809Y-134186190D01*
X179785714Y-134662380D02*
X179785714Y-133662380D01*
X180166666Y-133662380D01*
X180261904Y-133710000D01*
X180309523Y-133757619D01*
X180357142Y-133852857D01*
X180357142Y-133995714D01*
X180309523Y-134090952D01*
X180261904Y-134138571D01*
X180166666Y-134186190D01*
X179785714Y-134186190D01*
X181309523Y-134662380D02*
X180738095Y-134662380D01*
X181023809Y-134662380D02*
X181023809Y-133662380D01*
X180928571Y-133805238D01*
X180833333Y-133900476D01*
X180738095Y-133948095D01*
X181880952Y-134090952D02*
X181785714Y-134043333D01*
X181738095Y-133995714D01*
X181690476Y-133900476D01*
X181690476Y-133852857D01*
X181738095Y-133757619D01*
X181785714Y-133710000D01*
X181880952Y-133662380D01*
X182071428Y-133662380D01*
X182166666Y-133710000D01*
X182214285Y-133757619D01*
X182261904Y-133852857D01*
X182261904Y-133900476D01*
X182214285Y-133995714D01*
X182166666Y-134043333D01*
X182071428Y-134090952D01*
X181880952Y-134090952D01*
X181785714Y-134138571D01*
X181738095Y-134186190D01*
X181690476Y-134281428D01*
X181690476Y-134471904D01*
X181738095Y-134567142D01*
X181785714Y-134614761D01*
X181880952Y-134662380D01*
X182071428Y-134662380D01*
X182166666Y-134614761D01*
X182214285Y-134567142D01*
X182261904Y-134471904D01*
X182261904Y-134281428D01*
X182214285Y-134186190D01*
X182166666Y-134138571D01*
X182071428Y-134090952D01*
%TO.C,R17*%
X123485714Y-137111904D02*
X123219047Y-136730952D01*
X123028571Y-137111904D02*
X123028571Y-136311904D01*
X123333333Y-136311904D01*
X123409523Y-136350000D01*
X123447619Y-136388095D01*
X123485714Y-136464285D01*
X123485714Y-136578571D01*
X123447619Y-136654761D01*
X123409523Y-136692857D01*
X123333333Y-136730952D01*
X123028571Y-136730952D01*
X124247619Y-137111904D02*
X123790476Y-137111904D01*
X124019047Y-137111904D02*
X124019047Y-136311904D01*
X123942857Y-136426190D01*
X123866666Y-136502380D01*
X123790476Y-136540476D01*
X124514285Y-136311904D02*
X125047619Y-136311904D01*
X124704761Y-137111904D01*
%TO.C,R16*%
X121207142Y-146772380D02*
X120873809Y-146296190D01*
X120635714Y-146772380D02*
X120635714Y-145772380D01*
X121016666Y-145772380D01*
X121111904Y-145820000D01*
X121159523Y-145867619D01*
X121207142Y-145962857D01*
X121207142Y-146105714D01*
X121159523Y-146200952D01*
X121111904Y-146248571D01*
X121016666Y-146296190D01*
X120635714Y-146296190D01*
X122159523Y-146772380D02*
X121588095Y-146772380D01*
X121873809Y-146772380D02*
X121873809Y-145772380D01*
X121778571Y-145915238D01*
X121683333Y-146010476D01*
X121588095Y-146058095D01*
X123016666Y-145772380D02*
X122826190Y-145772380D01*
X122730952Y-145820000D01*
X122683333Y-145867619D01*
X122588095Y-146010476D01*
X122540476Y-146200952D01*
X122540476Y-146581904D01*
X122588095Y-146677142D01*
X122635714Y-146724761D01*
X122730952Y-146772380D01*
X122921428Y-146772380D01*
X123016666Y-146724761D01*
X123064285Y-146677142D01*
X123111904Y-146581904D01*
X123111904Y-146343809D01*
X123064285Y-146248571D01*
X123016666Y-146200952D01*
X122921428Y-146153333D01*
X122730952Y-146153333D01*
X122635714Y-146200952D01*
X122588095Y-146248571D01*
X122540476Y-146343809D01*
%TO.C,R15*%
X170857142Y-144702380D02*
X170523809Y-144226190D01*
X170285714Y-144702380D02*
X170285714Y-143702380D01*
X170666666Y-143702380D01*
X170761904Y-143750000D01*
X170809523Y-143797619D01*
X170857142Y-143892857D01*
X170857142Y-144035714D01*
X170809523Y-144130952D01*
X170761904Y-144178571D01*
X170666666Y-144226190D01*
X170285714Y-144226190D01*
X171809523Y-144702380D02*
X171238095Y-144702380D01*
X171523809Y-144702380D02*
X171523809Y-143702380D01*
X171428571Y-143845238D01*
X171333333Y-143940476D01*
X171238095Y-143988095D01*
X172714285Y-143702380D02*
X172238095Y-143702380D01*
X172190476Y-144178571D01*
X172238095Y-144130952D01*
X172333333Y-144083333D01*
X172571428Y-144083333D01*
X172666666Y-144130952D01*
X172714285Y-144178571D01*
X172761904Y-144273809D01*
X172761904Y-144511904D01*
X172714285Y-144607142D01*
X172666666Y-144654761D01*
X172571428Y-144702380D01*
X172333333Y-144702380D01*
X172238095Y-144654761D01*
X172190476Y-144607142D01*
%TO.C,R14*%
X133007142Y-132922380D02*
X132673809Y-132446190D01*
X132435714Y-132922380D02*
X132435714Y-131922380D01*
X132816666Y-131922380D01*
X132911904Y-131970000D01*
X132959523Y-132017619D01*
X133007142Y-132112857D01*
X133007142Y-132255714D01*
X132959523Y-132350952D01*
X132911904Y-132398571D01*
X132816666Y-132446190D01*
X132435714Y-132446190D01*
X133959523Y-132922380D02*
X133388095Y-132922380D01*
X133673809Y-132922380D02*
X133673809Y-131922380D01*
X133578571Y-132065238D01*
X133483333Y-132160476D01*
X133388095Y-132208095D01*
X134816666Y-132255714D02*
X134816666Y-132922380D01*
X134578571Y-131874761D02*
X134340476Y-132589047D01*
X134959523Y-132589047D01*
%TO.C,R13*%
X118707142Y-128582380D02*
X118373809Y-128106190D01*
X118135714Y-128582380D02*
X118135714Y-127582380D01*
X118516666Y-127582380D01*
X118611904Y-127630000D01*
X118659523Y-127677619D01*
X118707142Y-127772857D01*
X118707142Y-127915714D01*
X118659523Y-128010952D01*
X118611904Y-128058571D01*
X118516666Y-128106190D01*
X118135714Y-128106190D01*
X119659523Y-128582380D02*
X119088095Y-128582380D01*
X119373809Y-128582380D02*
X119373809Y-127582380D01*
X119278571Y-127725238D01*
X119183333Y-127820476D01*
X119088095Y-127868095D01*
X119992857Y-127582380D02*
X120611904Y-127582380D01*
X120278571Y-127963333D01*
X120421428Y-127963333D01*
X120516666Y-128010952D01*
X120564285Y-128058571D01*
X120611904Y-128153809D01*
X120611904Y-128391904D01*
X120564285Y-128487142D01*
X120516666Y-128534761D01*
X120421428Y-128582380D01*
X120135714Y-128582380D01*
X120040476Y-128534761D01*
X119992857Y-128487142D01*
%TO.C,R12*%
X167857142Y-141952380D02*
X167523809Y-141476190D01*
X167285714Y-141952380D02*
X167285714Y-140952380D01*
X167666666Y-140952380D01*
X167761904Y-141000000D01*
X167809523Y-141047619D01*
X167857142Y-141142857D01*
X167857142Y-141285714D01*
X167809523Y-141380952D01*
X167761904Y-141428571D01*
X167666666Y-141476190D01*
X167285714Y-141476190D01*
X168809523Y-141952380D02*
X168238095Y-141952380D01*
X168523809Y-141952380D02*
X168523809Y-140952380D01*
X168428571Y-141095238D01*
X168333333Y-141190476D01*
X168238095Y-141238095D01*
X169190476Y-141047619D02*
X169238095Y-141000000D01*
X169333333Y-140952380D01*
X169571428Y-140952380D01*
X169666666Y-141000000D01*
X169714285Y-141047619D01*
X169761904Y-141142857D01*
X169761904Y-141238095D01*
X169714285Y-141380952D01*
X169142857Y-141952380D01*
X169761904Y-141952380D01*
%TO.C,R11*%
X167707142Y-145422380D02*
X167373809Y-144946190D01*
X167135714Y-145422380D02*
X167135714Y-144422380D01*
X167516666Y-144422380D01*
X167611904Y-144470000D01*
X167659523Y-144517619D01*
X167707142Y-144612857D01*
X167707142Y-144755714D01*
X167659523Y-144850952D01*
X167611904Y-144898571D01*
X167516666Y-144946190D01*
X167135714Y-144946190D01*
X168659523Y-145422380D02*
X168088095Y-145422380D01*
X168373809Y-145422380D02*
X168373809Y-144422380D01*
X168278571Y-144565238D01*
X168183333Y-144660476D01*
X168088095Y-144708095D01*
X169611904Y-145422380D02*
X169040476Y-145422380D01*
X169326190Y-145422380D02*
X169326190Y-144422380D01*
X169230952Y-144565238D01*
X169135714Y-144660476D01*
X169040476Y-144708095D01*
%TO.C,R10*%
X108707142Y-127802380D02*
X108373809Y-127326190D01*
X108135714Y-127802380D02*
X108135714Y-126802380D01*
X108516666Y-126802380D01*
X108611904Y-126850000D01*
X108659523Y-126897619D01*
X108707142Y-126992857D01*
X108707142Y-127135714D01*
X108659523Y-127230952D01*
X108611904Y-127278571D01*
X108516666Y-127326190D01*
X108135714Y-127326190D01*
X109659523Y-127802380D02*
X109088095Y-127802380D01*
X109373809Y-127802380D02*
X109373809Y-126802380D01*
X109278571Y-126945238D01*
X109183333Y-127040476D01*
X109088095Y-127088095D01*
X110278571Y-126802380D02*
X110373809Y-126802380D01*
X110469047Y-126850000D01*
X110516666Y-126897619D01*
X110564285Y-126992857D01*
X110611904Y-127183333D01*
X110611904Y-127421428D01*
X110564285Y-127611904D01*
X110516666Y-127707142D01*
X110469047Y-127754761D01*
X110373809Y-127802380D01*
X110278571Y-127802380D01*
X110183333Y-127754761D01*
X110135714Y-127707142D01*
X110088095Y-127611904D01*
X110040476Y-127421428D01*
X110040476Y-127183333D01*
X110088095Y-126992857D01*
X110135714Y-126897619D01*
X110183333Y-126850000D01*
X110278571Y-126802380D01*
%TO.C,R9*%
X116133333Y-127222380D02*
X115800000Y-126746190D01*
X115561904Y-127222380D02*
X115561904Y-126222380D01*
X115942857Y-126222380D01*
X116038095Y-126270000D01*
X116085714Y-126317619D01*
X116133333Y-126412857D01*
X116133333Y-126555714D01*
X116085714Y-126650952D01*
X116038095Y-126698571D01*
X115942857Y-126746190D01*
X115561904Y-126746190D01*
X116609523Y-127222380D02*
X116800000Y-127222380D01*
X116895238Y-127174761D01*
X116942857Y-127127142D01*
X117038095Y-126984285D01*
X117085714Y-126793809D01*
X117085714Y-126412857D01*
X117038095Y-126317619D01*
X116990476Y-126270000D01*
X116895238Y-126222380D01*
X116704761Y-126222380D01*
X116609523Y-126270000D01*
X116561904Y-126317619D01*
X116514285Y-126412857D01*
X116514285Y-126650952D01*
X116561904Y-126746190D01*
X116609523Y-126793809D01*
X116704761Y-126841428D01*
X116895238Y-126841428D01*
X116990476Y-126793809D01*
X117038095Y-126746190D01*
X117085714Y-126650952D01*
%TO.C,R8*%
X115883333Y-138132380D02*
X115550000Y-137656190D01*
X115311904Y-138132380D02*
X115311904Y-137132380D01*
X115692857Y-137132380D01*
X115788095Y-137180000D01*
X115835714Y-137227619D01*
X115883333Y-137322857D01*
X115883333Y-137465714D01*
X115835714Y-137560952D01*
X115788095Y-137608571D01*
X115692857Y-137656190D01*
X115311904Y-137656190D01*
X116454761Y-137560952D02*
X116359523Y-137513333D01*
X116311904Y-137465714D01*
X116264285Y-137370476D01*
X116264285Y-137322857D01*
X116311904Y-137227619D01*
X116359523Y-137180000D01*
X116454761Y-137132380D01*
X116645238Y-137132380D01*
X116740476Y-137180000D01*
X116788095Y-137227619D01*
X116835714Y-137322857D01*
X116835714Y-137370476D01*
X116788095Y-137465714D01*
X116740476Y-137513333D01*
X116645238Y-137560952D01*
X116454761Y-137560952D01*
X116359523Y-137608571D01*
X116311904Y-137656190D01*
X116264285Y-137751428D01*
X116264285Y-137941904D01*
X116311904Y-138037142D01*
X116359523Y-138084761D01*
X116454761Y-138132380D01*
X116645238Y-138132380D01*
X116740476Y-138084761D01*
X116788095Y-138037142D01*
X116835714Y-137941904D01*
X116835714Y-137751428D01*
X116788095Y-137656190D01*
X116740476Y-137608571D01*
X116645238Y-137560952D01*
%TO.C,R7*%
X115933333Y-142152380D02*
X115600000Y-141676190D01*
X115361904Y-142152380D02*
X115361904Y-141152380D01*
X115742857Y-141152380D01*
X115838095Y-141200000D01*
X115885714Y-141247619D01*
X115933333Y-141342857D01*
X115933333Y-141485714D01*
X115885714Y-141580952D01*
X115838095Y-141628571D01*
X115742857Y-141676190D01*
X115361904Y-141676190D01*
X116266666Y-141152380D02*
X116933333Y-141152380D01*
X116504761Y-142152380D01*
%TO.C,R6*%
X139083333Y-125952380D02*
X138750000Y-125476190D01*
X138511904Y-125952380D02*
X138511904Y-124952380D01*
X138892857Y-124952380D01*
X138988095Y-125000000D01*
X139035714Y-125047619D01*
X139083333Y-125142857D01*
X139083333Y-125285714D01*
X139035714Y-125380952D01*
X138988095Y-125428571D01*
X138892857Y-125476190D01*
X138511904Y-125476190D01*
X139940476Y-124952380D02*
X139750000Y-124952380D01*
X139654761Y-125000000D01*
X139607142Y-125047619D01*
X139511904Y-125190476D01*
X139464285Y-125380952D01*
X139464285Y-125761904D01*
X139511904Y-125857142D01*
X139559523Y-125904761D01*
X139654761Y-125952380D01*
X139845238Y-125952380D01*
X139940476Y-125904761D01*
X139988095Y-125857142D01*
X140035714Y-125761904D01*
X140035714Y-125523809D01*
X139988095Y-125428571D01*
X139940476Y-125380952D01*
X139845238Y-125333333D01*
X139654761Y-125333333D01*
X139559523Y-125380952D01*
X139511904Y-125428571D01*
X139464285Y-125523809D01*
%TO.C,R5*%
X117183333Y-120802380D02*
X116850000Y-120326190D01*
X116611904Y-120802380D02*
X116611904Y-119802380D01*
X116992857Y-119802380D01*
X117088095Y-119850000D01*
X117135714Y-119897619D01*
X117183333Y-119992857D01*
X117183333Y-120135714D01*
X117135714Y-120230952D01*
X117088095Y-120278571D01*
X116992857Y-120326190D01*
X116611904Y-120326190D01*
X118088095Y-119802380D02*
X117611904Y-119802380D01*
X117564285Y-120278571D01*
X117611904Y-120230952D01*
X117707142Y-120183333D01*
X117945238Y-120183333D01*
X118040476Y-120230952D01*
X118088095Y-120278571D01*
X118135714Y-120373809D01*
X118135714Y-120611904D01*
X118088095Y-120707142D01*
X118040476Y-120754761D01*
X117945238Y-120802380D01*
X117707142Y-120802380D01*
X117611904Y-120754761D01*
X117564285Y-120707142D01*
%TO.C,R4*%
X108783333Y-122202380D02*
X108450000Y-121726190D01*
X108211904Y-122202380D02*
X108211904Y-121202380D01*
X108592857Y-121202380D01*
X108688095Y-121250000D01*
X108735714Y-121297619D01*
X108783333Y-121392857D01*
X108783333Y-121535714D01*
X108735714Y-121630952D01*
X108688095Y-121678571D01*
X108592857Y-121726190D01*
X108211904Y-121726190D01*
X109640476Y-121535714D02*
X109640476Y-122202380D01*
X109402380Y-121154761D02*
X109164285Y-121869047D01*
X109783333Y-121869047D01*
%TO.C,R3*%
X154133333Y-146822380D02*
X153800000Y-146346190D01*
X153561904Y-146822380D02*
X153561904Y-145822380D01*
X153942857Y-145822380D01*
X154038095Y-145870000D01*
X154085714Y-145917619D01*
X154133333Y-146012857D01*
X154133333Y-146155714D01*
X154085714Y-146250952D01*
X154038095Y-146298571D01*
X153942857Y-146346190D01*
X153561904Y-146346190D01*
X154466666Y-145822380D02*
X155085714Y-145822380D01*
X154752380Y-146203333D01*
X154895238Y-146203333D01*
X154990476Y-146250952D01*
X155038095Y-146298571D01*
X155085714Y-146393809D01*
X155085714Y-146631904D01*
X155038095Y-146727142D01*
X154990476Y-146774761D01*
X154895238Y-146822380D01*
X154609523Y-146822380D01*
X154514285Y-146774761D01*
X154466666Y-146727142D01*
%TO.C,R2*%
X153833333Y-142372380D02*
X153500000Y-141896190D01*
X153261904Y-142372380D02*
X153261904Y-141372380D01*
X153642857Y-141372380D01*
X153738095Y-141420000D01*
X153785714Y-141467619D01*
X153833333Y-141562857D01*
X153833333Y-141705714D01*
X153785714Y-141800952D01*
X153738095Y-141848571D01*
X153642857Y-141896190D01*
X153261904Y-141896190D01*
X154214285Y-141467619D02*
X154261904Y-141420000D01*
X154357142Y-141372380D01*
X154595238Y-141372380D01*
X154690476Y-141420000D01*
X154738095Y-141467619D01*
X154785714Y-141562857D01*
X154785714Y-141658095D01*
X154738095Y-141800952D01*
X154166666Y-142372380D01*
X154785714Y-142372380D01*
%TO.C,R1*%
X157583333Y-139702380D02*
X157250000Y-139226190D01*
X157011904Y-139702380D02*
X157011904Y-138702380D01*
X157392857Y-138702380D01*
X157488095Y-138750000D01*
X157535714Y-138797619D01*
X157583333Y-138892857D01*
X157583333Y-139035714D01*
X157535714Y-139130952D01*
X157488095Y-139178571D01*
X157392857Y-139226190D01*
X157011904Y-139226190D01*
X158535714Y-139702380D02*
X157964285Y-139702380D01*
X158250000Y-139702380D02*
X158250000Y-138702380D01*
X158154761Y-138845238D01*
X158059523Y-138940476D01*
X157964285Y-138988095D01*
%TO.C,Q5*%
X171154761Y-126797619D02*
X171059523Y-126750000D01*
X170964285Y-126654761D01*
X170821428Y-126511904D01*
X170726190Y-126464285D01*
X170630952Y-126464285D01*
X170678571Y-126702380D02*
X170583333Y-126654761D01*
X170488095Y-126559523D01*
X170440476Y-126369047D01*
X170440476Y-126035714D01*
X170488095Y-125845238D01*
X170583333Y-125750000D01*
X170678571Y-125702380D01*
X170869047Y-125702380D01*
X170964285Y-125750000D01*
X171059523Y-125845238D01*
X171107142Y-126035714D01*
X171107142Y-126369047D01*
X171059523Y-126559523D01*
X170964285Y-126654761D01*
X170869047Y-126702380D01*
X170678571Y-126702380D01*
X172011904Y-125702380D02*
X171535714Y-125702380D01*
X171488095Y-126178571D01*
X171535714Y-126130952D01*
X171630952Y-126083333D01*
X171869047Y-126083333D01*
X171964285Y-126130952D01*
X172011904Y-126178571D01*
X172059523Y-126273809D01*
X172059523Y-126511904D01*
X172011904Y-126607142D01*
X171964285Y-126654761D01*
X171869047Y-126702380D01*
X171630952Y-126702380D01*
X171535714Y-126654761D01*
X171488095Y-126607142D01*
%TO.C,Q2*%
X178904761Y-130047619D02*
X178809523Y-130000000D01*
X178714285Y-129904761D01*
X178571428Y-129761904D01*
X178476190Y-129714285D01*
X178380952Y-129714285D01*
X178428571Y-129952380D02*
X178333333Y-129904761D01*
X178238095Y-129809523D01*
X178190476Y-129619047D01*
X178190476Y-129285714D01*
X178238095Y-129095238D01*
X178333333Y-129000000D01*
X178428571Y-128952380D01*
X178619047Y-128952380D01*
X178714285Y-129000000D01*
X178809523Y-129095238D01*
X178857142Y-129285714D01*
X178857142Y-129619047D01*
X178809523Y-129809523D01*
X178714285Y-129904761D01*
X178619047Y-129952380D01*
X178428571Y-129952380D01*
X179238095Y-129047619D02*
X179285714Y-129000000D01*
X179380952Y-128952380D01*
X179619047Y-128952380D01*
X179714285Y-129000000D01*
X179761904Y-129047619D01*
X179809523Y-129142857D01*
X179809523Y-129238095D01*
X179761904Y-129380952D01*
X179190476Y-129952380D01*
X179809523Y-129952380D01*
%TO.C,Q1*%
X117754761Y-144597619D02*
X117659523Y-144550000D01*
X117564285Y-144454761D01*
X117421428Y-144311904D01*
X117326190Y-144264285D01*
X117230952Y-144264285D01*
X117278571Y-144502380D02*
X117183333Y-144454761D01*
X117088095Y-144359523D01*
X117040476Y-144169047D01*
X117040476Y-143835714D01*
X117088095Y-143645238D01*
X117183333Y-143550000D01*
X117278571Y-143502380D01*
X117469047Y-143502380D01*
X117564285Y-143550000D01*
X117659523Y-143645238D01*
X117707142Y-143835714D01*
X117707142Y-144169047D01*
X117659523Y-144359523D01*
X117564285Y-144454761D01*
X117469047Y-144502380D01*
X117278571Y-144502380D01*
X118659523Y-144502380D02*
X118088095Y-144502380D01*
X118373809Y-144502380D02*
X118373809Y-143502380D01*
X118278571Y-143645238D01*
X118183333Y-143740476D01*
X118088095Y-143788095D01*
%TO.C,L1*%
X181633333Y-107652380D02*
X181157142Y-107652380D01*
X181157142Y-106652380D01*
X182490476Y-107652380D02*
X181919047Y-107652380D01*
X182204761Y-107652380D02*
X182204761Y-106652380D01*
X182109523Y-106795238D01*
X182014285Y-106890476D01*
X181919047Y-106938095D01*
%TO.C,J5*%
X191666666Y-110702380D02*
X191666666Y-111416666D01*
X191619047Y-111559523D01*
X191523809Y-111654761D01*
X191380952Y-111702380D01*
X191285714Y-111702380D01*
X192619047Y-110702380D02*
X192142857Y-110702380D01*
X192095238Y-111178571D01*
X192142857Y-111130952D01*
X192238095Y-111083333D01*
X192476190Y-111083333D01*
X192571428Y-111130952D01*
X192619047Y-111178571D01*
X192666666Y-111273809D01*
X192666666Y-111511904D01*
X192619047Y-111607142D01*
X192571428Y-111654761D01*
X192476190Y-111702380D01*
X192238095Y-111702380D01*
X192142857Y-111654761D01*
X192095238Y-111607142D01*
%TO.C,J4*%
X185166666Y-103952380D02*
X185166666Y-104666666D01*
X185119047Y-104809523D01*
X185023809Y-104904761D01*
X184880952Y-104952380D01*
X184785714Y-104952380D01*
X186071428Y-104285714D02*
X186071428Y-104952380D01*
X185833333Y-103904761D02*
X185595238Y-104619047D01*
X186214285Y-104619047D01*
%TO.C,J3*%
X168916666Y-137702380D02*
X168916666Y-138416666D01*
X168869047Y-138559523D01*
X168773809Y-138654761D01*
X168630952Y-138702380D01*
X168535714Y-138702380D01*
X169297619Y-137702380D02*
X169916666Y-137702380D01*
X169583333Y-138083333D01*
X169726190Y-138083333D01*
X169821428Y-138130952D01*
X169869047Y-138178571D01*
X169916666Y-138273809D01*
X169916666Y-138511904D01*
X169869047Y-138607142D01*
X169821428Y-138654761D01*
X169726190Y-138702380D01*
X169440476Y-138702380D01*
X169345238Y-138654761D01*
X169297619Y-138607142D01*
%TO.C,Freq1*%
X146626190Y-142268571D02*
X146292857Y-142268571D01*
X146292857Y-142792380D02*
X146292857Y-141792380D01*
X146769047Y-141792380D01*
X147150000Y-142792380D02*
X147150000Y-142125714D01*
X147150000Y-142316190D02*
X147197619Y-142220952D01*
X147245238Y-142173333D01*
X147340476Y-142125714D01*
X147435714Y-142125714D01*
X148150000Y-142744761D02*
X148054761Y-142792380D01*
X147864285Y-142792380D01*
X147769047Y-142744761D01*
X147721428Y-142649523D01*
X147721428Y-142268571D01*
X147769047Y-142173333D01*
X147864285Y-142125714D01*
X148054761Y-142125714D01*
X148150000Y-142173333D01*
X148197619Y-142268571D01*
X148197619Y-142363809D01*
X147721428Y-142459047D01*
X149054761Y-142125714D02*
X149054761Y-143125714D01*
X149054761Y-142744761D02*
X148959523Y-142792380D01*
X148769047Y-142792380D01*
X148673809Y-142744761D01*
X148626190Y-142697142D01*
X148578571Y-142601904D01*
X148578571Y-142316190D01*
X148626190Y-142220952D01*
X148673809Y-142173333D01*
X148769047Y-142125714D01*
X148959523Y-142125714D01*
X149054761Y-142173333D01*
X150054761Y-142792380D02*
X149483333Y-142792380D01*
X149769047Y-142792380D02*
X149769047Y-141792380D01*
X149673809Y-141935238D01*
X149578571Y-142030476D01*
X149483333Y-142078095D01*
%TO.C,FB2*%
X110248571Y-118283333D02*
X110248571Y-118616666D01*
X110772380Y-118616666D02*
X109772380Y-118616666D01*
X109772380Y-118140476D01*
X110248571Y-117426190D02*
X110296190Y-117283333D01*
X110343809Y-117235714D01*
X110439047Y-117188095D01*
X110581904Y-117188095D01*
X110677142Y-117235714D01*
X110724761Y-117283333D01*
X110772380Y-117378571D01*
X110772380Y-117759523D01*
X109772380Y-117759523D01*
X109772380Y-117426190D01*
X109820000Y-117330952D01*
X109867619Y-117283333D01*
X109962857Y-117235714D01*
X110058095Y-117235714D01*
X110153333Y-117283333D01*
X110200952Y-117330952D01*
X110248571Y-117426190D01*
X110248571Y-117759523D01*
X109867619Y-116807142D02*
X109820000Y-116759523D01*
X109772380Y-116664285D01*
X109772380Y-116426190D01*
X109820000Y-116330952D01*
X109867619Y-116283333D01*
X109962857Y-116235714D01*
X110058095Y-116235714D01*
X110200952Y-116283333D01*
X110772380Y-116854761D01*
X110772380Y-116235714D01*
%TO.C,FB1*%
X114348571Y-117233333D02*
X114348571Y-117566666D01*
X114872380Y-117566666D02*
X113872380Y-117566666D01*
X113872380Y-117090476D01*
X114348571Y-116376190D02*
X114396190Y-116233333D01*
X114443809Y-116185714D01*
X114539047Y-116138095D01*
X114681904Y-116138095D01*
X114777142Y-116185714D01*
X114824761Y-116233333D01*
X114872380Y-116328571D01*
X114872380Y-116709523D01*
X113872380Y-116709523D01*
X113872380Y-116376190D01*
X113920000Y-116280952D01*
X113967619Y-116233333D01*
X114062857Y-116185714D01*
X114158095Y-116185714D01*
X114253333Y-116233333D01*
X114300952Y-116280952D01*
X114348571Y-116376190D01*
X114348571Y-116709523D01*
X114872380Y-115185714D02*
X114872380Y-115757142D01*
X114872380Y-115471428D02*
X113872380Y-115471428D01*
X114015238Y-115566666D01*
X114110476Y-115661904D01*
X114158095Y-115757142D01*
%TO.C,F1*%
X176716666Y-100908571D02*
X176383333Y-100908571D01*
X176383333Y-101432380D02*
X176383333Y-100432380D01*
X176859523Y-100432380D01*
X177764285Y-101432380D02*
X177192857Y-101432380D01*
X177478571Y-101432380D02*
X177478571Y-100432380D01*
X177383333Y-100575238D01*
X177288095Y-100670476D01*
X177192857Y-100718095D01*
%TO.C,Duty1*%
X155392857Y-132952380D02*
X155392857Y-131952380D01*
X155630952Y-131952380D01*
X155773809Y-132000000D01*
X155869047Y-132095238D01*
X155916666Y-132190476D01*
X155964285Y-132380952D01*
X155964285Y-132523809D01*
X155916666Y-132714285D01*
X155869047Y-132809523D01*
X155773809Y-132904761D01*
X155630952Y-132952380D01*
X155392857Y-132952380D01*
X156821428Y-132285714D02*
X156821428Y-132952380D01*
X156392857Y-132285714D02*
X156392857Y-132809523D01*
X156440476Y-132904761D01*
X156535714Y-132952380D01*
X156678571Y-132952380D01*
X156773809Y-132904761D01*
X156821428Y-132857142D01*
X157154761Y-132285714D02*
X157535714Y-132285714D01*
X157297619Y-131952380D02*
X157297619Y-132809523D01*
X157345238Y-132904761D01*
X157440476Y-132952380D01*
X157535714Y-132952380D01*
X157773809Y-132285714D02*
X158011904Y-132952380D01*
X158250000Y-132285714D02*
X158011904Y-132952380D01*
X157916666Y-133190476D01*
X157869047Y-133238095D01*
X157773809Y-133285714D01*
X159154761Y-132952380D02*
X158583333Y-132952380D01*
X158869047Y-132952380D02*
X158869047Y-131952380D01*
X158773809Y-132095238D01*
X158678571Y-132190476D01*
X158583333Y-132238095D01*
%TO.C,D3*%
X170511904Y-96702380D02*
X170511904Y-95702380D01*
X170750000Y-95702380D01*
X170892857Y-95750000D01*
X170988095Y-95845238D01*
X171035714Y-95940476D01*
X171083333Y-96130952D01*
X171083333Y-96273809D01*
X171035714Y-96464285D01*
X170988095Y-96559523D01*
X170892857Y-96654761D01*
X170750000Y-96702380D01*
X170511904Y-96702380D01*
X171416666Y-95702380D02*
X172035714Y-95702380D01*
X171702380Y-96083333D01*
X171845238Y-96083333D01*
X171940476Y-96130952D01*
X171988095Y-96178571D01*
X172035714Y-96273809D01*
X172035714Y-96511904D01*
X171988095Y-96607142D01*
X171940476Y-96654761D01*
X171845238Y-96702380D01*
X171559523Y-96702380D01*
X171464285Y-96654761D01*
X171416666Y-96607142D01*
%TO.C,D2*%
X167511904Y-119702380D02*
X167511904Y-118702380D01*
X167750000Y-118702380D01*
X167892857Y-118750000D01*
X167988095Y-118845238D01*
X168035714Y-118940476D01*
X168083333Y-119130952D01*
X168083333Y-119273809D01*
X168035714Y-119464285D01*
X167988095Y-119559523D01*
X167892857Y-119654761D01*
X167750000Y-119702380D01*
X167511904Y-119702380D01*
X168464285Y-118797619D02*
X168511904Y-118750000D01*
X168607142Y-118702380D01*
X168845238Y-118702380D01*
X168940476Y-118750000D01*
X168988095Y-118797619D01*
X169035714Y-118892857D01*
X169035714Y-118988095D01*
X168988095Y-119130952D01*
X168416666Y-119702380D01*
X169035714Y-119702380D01*
%TO.C,D1*%
X165011904Y-111952380D02*
X165011904Y-110952380D01*
X165250000Y-110952380D01*
X165392857Y-111000000D01*
X165488095Y-111095238D01*
X165535714Y-111190476D01*
X165583333Y-111380952D01*
X165583333Y-111523809D01*
X165535714Y-111714285D01*
X165488095Y-111809523D01*
X165392857Y-111904761D01*
X165250000Y-111952380D01*
X165011904Y-111952380D01*
X166535714Y-111952380D02*
X165964285Y-111952380D01*
X166250000Y-111952380D02*
X166250000Y-110952380D01*
X166154761Y-111095238D01*
X166059523Y-111190476D01*
X165964285Y-111238095D01*
%TO.C,C53*%
X133607142Y-119037142D02*
X133559523Y-119084761D01*
X133416666Y-119132380D01*
X133321428Y-119132380D01*
X133178571Y-119084761D01*
X133083333Y-118989523D01*
X133035714Y-118894285D01*
X132988095Y-118703809D01*
X132988095Y-118560952D01*
X133035714Y-118370476D01*
X133083333Y-118275238D01*
X133178571Y-118180000D01*
X133321428Y-118132380D01*
X133416666Y-118132380D01*
X133559523Y-118180000D01*
X133607142Y-118227619D01*
X134511904Y-118132380D02*
X134035714Y-118132380D01*
X133988095Y-118608571D01*
X134035714Y-118560952D01*
X134130952Y-118513333D01*
X134369047Y-118513333D01*
X134464285Y-118560952D01*
X134511904Y-118608571D01*
X134559523Y-118703809D01*
X134559523Y-118941904D01*
X134511904Y-119037142D01*
X134464285Y-119084761D01*
X134369047Y-119132380D01*
X134130952Y-119132380D01*
X134035714Y-119084761D01*
X133988095Y-119037142D01*
X134892857Y-118132380D02*
X135511904Y-118132380D01*
X135178571Y-118513333D01*
X135321428Y-118513333D01*
X135416666Y-118560952D01*
X135464285Y-118608571D01*
X135511904Y-118703809D01*
X135511904Y-118941904D01*
X135464285Y-119037142D01*
X135416666Y-119084761D01*
X135321428Y-119132380D01*
X135035714Y-119132380D01*
X134940476Y-119084761D01*
X134892857Y-119037142D01*
%TO.C,C52*%
X145057142Y-105077142D02*
X145009523Y-105124761D01*
X144866666Y-105172380D01*
X144771428Y-105172380D01*
X144628571Y-105124761D01*
X144533333Y-105029523D01*
X144485714Y-104934285D01*
X144438095Y-104743809D01*
X144438095Y-104600952D01*
X144485714Y-104410476D01*
X144533333Y-104315238D01*
X144628571Y-104220000D01*
X144771428Y-104172380D01*
X144866666Y-104172380D01*
X145009523Y-104220000D01*
X145057142Y-104267619D01*
X145961904Y-104172380D02*
X145485714Y-104172380D01*
X145438095Y-104648571D01*
X145485714Y-104600952D01*
X145580952Y-104553333D01*
X145819047Y-104553333D01*
X145914285Y-104600952D01*
X145961904Y-104648571D01*
X146009523Y-104743809D01*
X146009523Y-104981904D01*
X145961904Y-105077142D01*
X145914285Y-105124761D01*
X145819047Y-105172380D01*
X145580952Y-105172380D01*
X145485714Y-105124761D01*
X145438095Y-105077142D01*
X146390476Y-104267619D02*
X146438095Y-104220000D01*
X146533333Y-104172380D01*
X146771428Y-104172380D01*
X146866666Y-104220000D01*
X146914285Y-104267619D01*
X146961904Y-104362857D01*
X146961904Y-104458095D01*
X146914285Y-104600952D01*
X146342857Y-105172380D01*
X146961904Y-105172380D01*
%TO.C,C47*%
X138107142Y-119107142D02*
X138059523Y-119154761D01*
X137916666Y-119202380D01*
X137821428Y-119202380D01*
X137678571Y-119154761D01*
X137583333Y-119059523D01*
X137535714Y-118964285D01*
X137488095Y-118773809D01*
X137488095Y-118630952D01*
X137535714Y-118440476D01*
X137583333Y-118345238D01*
X137678571Y-118250000D01*
X137821428Y-118202380D01*
X137916666Y-118202380D01*
X138059523Y-118250000D01*
X138107142Y-118297619D01*
X138964285Y-118535714D02*
X138964285Y-119202380D01*
X138726190Y-118154761D02*
X138488095Y-118869047D01*
X139107142Y-118869047D01*
X139392857Y-118202380D02*
X140059523Y-118202380D01*
X139630952Y-119202380D01*
%TO.C,C44*%
X173607142Y-107857142D02*
X173559523Y-107904761D01*
X173416666Y-107952380D01*
X173321428Y-107952380D01*
X173178571Y-107904761D01*
X173083333Y-107809523D01*
X173035714Y-107714285D01*
X172988095Y-107523809D01*
X172988095Y-107380952D01*
X173035714Y-107190476D01*
X173083333Y-107095238D01*
X173178571Y-107000000D01*
X173321428Y-106952380D01*
X173416666Y-106952380D01*
X173559523Y-107000000D01*
X173607142Y-107047619D01*
X174464285Y-107285714D02*
X174464285Y-107952380D01*
X174226190Y-106904761D02*
X173988095Y-107619047D01*
X174607142Y-107619047D01*
X175416666Y-107285714D02*
X175416666Y-107952380D01*
X175178571Y-106904761D02*
X174940476Y-107619047D01*
X175559523Y-107619047D01*
%TO.C,C43*%
X156857142Y-117107142D02*
X156809523Y-117154761D01*
X156666666Y-117202380D01*
X156571428Y-117202380D01*
X156428571Y-117154761D01*
X156333333Y-117059523D01*
X156285714Y-116964285D01*
X156238095Y-116773809D01*
X156238095Y-116630952D01*
X156285714Y-116440476D01*
X156333333Y-116345238D01*
X156428571Y-116250000D01*
X156571428Y-116202380D01*
X156666666Y-116202380D01*
X156809523Y-116250000D01*
X156857142Y-116297619D01*
X157714285Y-116535714D02*
X157714285Y-117202380D01*
X157476190Y-116154761D02*
X157238095Y-116869047D01*
X157857142Y-116869047D01*
X158142857Y-116202380D02*
X158761904Y-116202380D01*
X158428571Y-116583333D01*
X158571428Y-116583333D01*
X158666666Y-116630952D01*
X158714285Y-116678571D01*
X158761904Y-116773809D01*
X158761904Y-117011904D01*
X158714285Y-117107142D01*
X158666666Y-117154761D01*
X158571428Y-117202380D01*
X158285714Y-117202380D01*
X158190476Y-117154761D01*
X158142857Y-117107142D01*
%TO.C,C42*%
X156857142Y-114107142D02*
X156809523Y-114154761D01*
X156666666Y-114202380D01*
X156571428Y-114202380D01*
X156428571Y-114154761D01*
X156333333Y-114059523D01*
X156285714Y-113964285D01*
X156238095Y-113773809D01*
X156238095Y-113630952D01*
X156285714Y-113440476D01*
X156333333Y-113345238D01*
X156428571Y-113250000D01*
X156571428Y-113202380D01*
X156666666Y-113202380D01*
X156809523Y-113250000D01*
X156857142Y-113297619D01*
X157714285Y-113535714D02*
X157714285Y-114202380D01*
X157476190Y-113154761D02*
X157238095Y-113869047D01*
X157857142Y-113869047D01*
X158190476Y-113297619D02*
X158238095Y-113250000D01*
X158333333Y-113202380D01*
X158571428Y-113202380D01*
X158666666Y-113250000D01*
X158714285Y-113297619D01*
X158761904Y-113392857D01*
X158761904Y-113488095D01*
X158714285Y-113630952D01*
X158142857Y-114202380D01*
X158761904Y-114202380D01*
%TO.C,C40*%
X159357142Y-107607142D02*
X159309523Y-107654761D01*
X159166666Y-107702380D01*
X159071428Y-107702380D01*
X158928571Y-107654761D01*
X158833333Y-107559523D01*
X158785714Y-107464285D01*
X158738095Y-107273809D01*
X158738095Y-107130952D01*
X158785714Y-106940476D01*
X158833333Y-106845238D01*
X158928571Y-106750000D01*
X159071428Y-106702380D01*
X159166666Y-106702380D01*
X159309523Y-106750000D01*
X159357142Y-106797619D01*
X160214285Y-107035714D02*
X160214285Y-107702380D01*
X159976190Y-106654761D02*
X159738095Y-107369047D01*
X160357142Y-107369047D01*
X160928571Y-106702380D02*
X161023809Y-106702380D01*
X161119047Y-106750000D01*
X161166666Y-106797619D01*
X161214285Y-106892857D01*
X161261904Y-107083333D01*
X161261904Y-107321428D01*
X161214285Y-107511904D01*
X161166666Y-107607142D01*
X161119047Y-107654761D01*
X161023809Y-107702380D01*
X160928571Y-107702380D01*
X160833333Y-107654761D01*
X160785714Y-107607142D01*
X160738095Y-107511904D01*
X160690476Y-107321428D01*
X160690476Y-107083333D01*
X160738095Y-106892857D01*
X160785714Y-106797619D01*
X160833333Y-106750000D01*
X160928571Y-106702380D01*
%TO.C,C38*%
X167607142Y-130607142D02*
X167559523Y-130654761D01*
X167416666Y-130702380D01*
X167321428Y-130702380D01*
X167178571Y-130654761D01*
X167083333Y-130559523D01*
X167035714Y-130464285D01*
X166988095Y-130273809D01*
X166988095Y-130130952D01*
X167035714Y-129940476D01*
X167083333Y-129845238D01*
X167178571Y-129750000D01*
X167321428Y-129702380D01*
X167416666Y-129702380D01*
X167559523Y-129750000D01*
X167607142Y-129797619D01*
X167940476Y-129702380D02*
X168559523Y-129702380D01*
X168226190Y-130083333D01*
X168369047Y-130083333D01*
X168464285Y-130130952D01*
X168511904Y-130178571D01*
X168559523Y-130273809D01*
X168559523Y-130511904D01*
X168511904Y-130607142D01*
X168464285Y-130654761D01*
X168369047Y-130702380D01*
X168083333Y-130702380D01*
X167988095Y-130654761D01*
X167940476Y-130607142D01*
X169130952Y-130130952D02*
X169035714Y-130083333D01*
X168988095Y-130035714D01*
X168940476Y-129940476D01*
X168940476Y-129892857D01*
X168988095Y-129797619D01*
X169035714Y-129750000D01*
X169130952Y-129702380D01*
X169321428Y-129702380D01*
X169416666Y-129750000D01*
X169464285Y-129797619D01*
X169511904Y-129892857D01*
X169511904Y-129940476D01*
X169464285Y-130035714D01*
X169416666Y-130083333D01*
X169321428Y-130130952D01*
X169130952Y-130130952D01*
X169035714Y-130178571D01*
X168988095Y-130226190D01*
X168940476Y-130321428D01*
X168940476Y-130511904D01*
X168988095Y-130607142D01*
X169035714Y-130654761D01*
X169130952Y-130702380D01*
X169321428Y-130702380D01*
X169416666Y-130654761D01*
X169464285Y-130607142D01*
X169511904Y-130511904D01*
X169511904Y-130321428D01*
X169464285Y-130226190D01*
X169416666Y-130178571D01*
X169321428Y-130130952D01*
%TO.C,C37*%
X162687142Y-124142857D02*
X162734761Y-124190476D01*
X162782380Y-124333333D01*
X162782380Y-124428571D01*
X162734761Y-124571428D01*
X162639523Y-124666666D01*
X162544285Y-124714285D01*
X162353809Y-124761904D01*
X162210952Y-124761904D01*
X162020476Y-124714285D01*
X161925238Y-124666666D01*
X161830000Y-124571428D01*
X161782380Y-124428571D01*
X161782380Y-124333333D01*
X161830000Y-124190476D01*
X161877619Y-124142857D01*
X161782380Y-123809523D02*
X161782380Y-123190476D01*
X162163333Y-123523809D01*
X162163333Y-123380952D01*
X162210952Y-123285714D01*
X162258571Y-123238095D01*
X162353809Y-123190476D01*
X162591904Y-123190476D01*
X162687142Y-123238095D01*
X162734761Y-123285714D01*
X162782380Y-123380952D01*
X162782380Y-123666666D01*
X162734761Y-123761904D01*
X162687142Y-123809523D01*
X161782380Y-122857142D02*
X161782380Y-122190476D01*
X162782380Y-122619047D01*
%TO.C,C35*%
X128607142Y-116327142D02*
X128559523Y-116374761D01*
X128416666Y-116422380D01*
X128321428Y-116422380D01*
X128178571Y-116374761D01*
X128083333Y-116279523D01*
X128035714Y-116184285D01*
X127988095Y-115993809D01*
X127988095Y-115850952D01*
X128035714Y-115660476D01*
X128083333Y-115565238D01*
X128178571Y-115470000D01*
X128321428Y-115422380D01*
X128416666Y-115422380D01*
X128559523Y-115470000D01*
X128607142Y-115517619D01*
X128940476Y-115422380D02*
X129559523Y-115422380D01*
X129226190Y-115803333D01*
X129369047Y-115803333D01*
X129464285Y-115850952D01*
X129511904Y-115898571D01*
X129559523Y-115993809D01*
X129559523Y-116231904D01*
X129511904Y-116327142D01*
X129464285Y-116374761D01*
X129369047Y-116422380D01*
X129083333Y-116422380D01*
X128988095Y-116374761D01*
X128940476Y-116327142D01*
X130464285Y-115422380D02*
X129988095Y-115422380D01*
X129940476Y-115898571D01*
X129988095Y-115850952D01*
X130083333Y-115803333D01*
X130321428Y-115803333D01*
X130416666Y-115850952D01*
X130464285Y-115898571D01*
X130511904Y-115993809D01*
X130511904Y-116231904D01*
X130464285Y-116327142D01*
X130416666Y-116374761D01*
X130321428Y-116422380D01*
X130083333Y-116422380D01*
X129988095Y-116374761D01*
X129940476Y-116327142D01*
%TO.C,C31*%
X134857142Y-122357142D02*
X134809523Y-122404761D01*
X134666666Y-122452380D01*
X134571428Y-122452380D01*
X134428571Y-122404761D01*
X134333333Y-122309523D01*
X134285714Y-122214285D01*
X134238095Y-122023809D01*
X134238095Y-121880952D01*
X134285714Y-121690476D01*
X134333333Y-121595238D01*
X134428571Y-121500000D01*
X134571428Y-121452380D01*
X134666666Y-121452380D01*
X134809523Y-121500000D01*
X134857142Y-121547619D01*
X135190476Y-121452380D02*
X135809523Y-121452380D01*
X135476190Y-121833333D01*
X135619047Y-121833333D01*
X135714285Y-121880952D01*
X135761904Y-121928571D01*
X135809523Y-122023809D01*
X135809523Y-122261904D01*
X135761904Y-122357142D01*
X135714285Y-122404761D01*
X135619047Y-122452380D01*
X135333333Y-122452380D01*
X135238095Y-122404761D01*
X135190476Y-122357142D01*
X136761904Y-122452380D02*
X136190476Y-122452380D01*
X136476190Y-122452380D02*
X136476190Y-121452380D01*
X136380952Y-121595238D01*
X136285714Y-121690476D01*
X136190476Y-121738095D01*
%TO.C,C30*%
X127357142Y-120642857D02*
X127404761Y-120690476D01*
X127452380Y-120833333D01*
X127452380Y-120928571D01*
X127404761Y-121071428D01*
X127309523Y-121166666D01*
X127214285Y-121214285D01*
X127023809Y-121261904D01*
X126880952Y-121261904D01*
X126690476Y-121214285D01*
X126595238Y-121166666D01*
X126500000Y-121071428D01*
X126452380Y-120928571D01*
X126452380Y-120833333D01*
X126500000Y-120690476D01*
X126547619Y-120642857D01*
X126452380Y-120309523D02*
X126452380Y-119690476D01*
X126833333Y-120023809D01*
X126833333Y-119880952D01*
X126880952Y-119785714D01*
X126928571Y-119738095D01*
X127023809Y-119690476D01*
X127261904Y-119690476D01*
X127357142Y-119738095D01*
X127404761Y-119785714D01*
X127452380Y-119880952D01*
X127452380Y-120166666D01*
X127404761Y-120261904D01*
X127357142Y-120309523D01*
X126452380Y-119071428D02*
X126452380Y-118976190D01*
X126500000Y-118880952D01*
X126547619Y-118833333D01*
X126642857Y-118785714D01*
X126833333Y-118738095D01*
X127071428Y-118738095D01*
X127261904Y-118785714D01*
X127357142Y-118833333D01*
X127404761Y-118880952D01*
X127452380Y-118976190D01*
X127452380Y-119071428D01*
X127404761Y-119166666D01*
X127357142Y-119214285D01*
X127261904Y-119261904D01*
X127071428Y-119309523D01*
X126833333Y-119309523D01*
X126642857Y-119261904D01*
X126547619Y-119214285D01*
X126500000Y-119166666D01*
X126452380Y-119071428D01*
%TO.C,C29*%
X187337142Y-132142857D02*
X187384761Y-132190476D01*
X187432380Y-132333333D01*
X187432380Y-132428571D01*
X187384761Y-132571428D01*
X187289523Y-132666666D01*
X187194285Y-132714285D01*
X187003809Y-132761904D01*
X186860952Y-132761904D01*
X186670476Y-132714285D01*
X186575238Y-132666666D01*
X186480000Y-132571428D01*
X186432380Y-132428571D01*
X186432380Y-132333333D01*
X186480000Y-132190476D01*
X186527619Y-132142857D01*
X186527619Y-131761904D02*
X186480000Y-131714285D01*
X186432380Y-131619047D01*
X186432380Y-131380952D01*
X186480000Y-131285714D01*
X186527619Y-131238095D01*
X186622857Y-131190476D01*
X186718095Y-131190476D01*
X186860952Y-131238095D01*
X187432380Y-131809523D01*
X187432380Y-131190476D01*
X187432380Y-130714285D02*
X187432380Y-130523809D01*
X187384761Y-130428571D01*
X187337142Y-130380952D01*
X187194285Y-130285714D01*
X187003809Y-130238095D01*
X186622857Y-130238095D01*
X186527619Y-130285714D01*
X186480000Y-130333333D01*
X186432380Y-130428571D01*
X186432380Y-130619047D01*
X186480000Y-130714285D01*
X186527619Y-130761904D01*
X186622857Y-130809523D01*
X186860952Y-130809523D01*
X186956190Y-130761904D01*
X187003809Y-130714285D01*
X187051428Y-130619047D01*
X187051428Y-130428571D01*
X187003809Y-130333333D01*
X186956190Y-130285714D01*
X186860952Y-130238095D01*
%TO.C,C28*%
X176857142Y-135142857D02*
X176904761Y-135190476D01*
X176952380Y-135333333D01*
X176952380Y-135428571D01*
X176904761Y-135571428D01*
X176809523Y-135666666D01*
X176714285Y-135714285D01*
X176523809Y-135761904D01*
X176380952Y-135761904D01*
X176190476Y-135714285D01*
X176095238Y-135666666D01*
X176000000Y-135571428D01*
X175952380Y-135428571D01*
X175952380Y-135333333D01*
X176000000Y-135190476D01*
X176047619Y-135142857D01*
X176047619Y-134761904D02*
X176000000Y-134714285D01*
X175952380Y-134619047D01*
X175952380Y-134380952D01*
X176000000Y-134285714D01*
X176047619Y-134238095D01*
X176142857Y-134190476D01*
X176238095Y-134190476D01*
X176380952Y-134238095D01*
X176952380Y-134809523D01*
X176952380Y-134190476D01*
X176380952Y-133619047D02*
X176333333Y-133714285D01*
X176285714Y-133761904D01*
X176190476Y-133809523D01*
X176142857Y-133809523D01*
X176047619Y-133761904D01*
X176000000Y-133714285D01*
X175952380Y-133619047D01*
X175952380Y-133428571D01*
X176000000Y-133333333D01*
X176047619Y-133285714D01*
X176142857Y-133238095D01*
X176190476Y-133238095D01*
X176285714Y-133285714D01*
X176333333Y-133333333D01*
X176380952Y-133428571D01*
X176380952Y-133619047D01*
X176428571Y-133714285D01*
X176476190Y-133761904D01*
X176571428Y-133809523D01*
X176761904Y-133809523D01*
X176857142Y-133761904D01*
X176904761Y-133714285D01*
X176952380Y-133619047D01*
X176952380Y-133428571D01*
X176904761Y-133333333D01*
X176857142Y-133285714D01*
X176761904Y-133238095D01*
X176571428Y-133238095D01*
X176476190Y-133285714D01*
X176428571Y-133333333D01*
X176380952Y-133428571D01*
%TO.C,C27*%
X128857142Y-119857142D02*
X128809523Y-119904761D01*
X128666666Y-119952380D01*
X128571428Y-119952380D01*
X128428571Y-119904761D01*
X128333333Y-119809523D01*
X128285714Y-119714285D01*
X128238095Y-119523809D01*
X128238095Y-119380952D01*
X128285714Y-119190476D01*
X128333333Y-119095238D01*
X128428571Y-119000000D01*
X128571428Y-118952380D01*
X128666666Y-118952380D01*
X128809523Y-119000000D01*
X128857142Y-119047619D01*
X129238095Y-119047619D02*
X129285714Y-119000000D01*
X129380952Y-118952380D01*
X129619047Y-118952380D01*
X129714285Y-119000000D01*
X129761904Y-119047619D01*
X129809523Y-119142857D01*
X129809523Y-119238095D01*
X129761904Y-119380952D01*
X129190476Y-119952380D01*
X129809523Y-119952380D01*
X130142857Y-118952380D02*
X130809523Y-118952380D01*
X130380952Y-119952380D01*
%TO.C,C25*%
X117757142Y-136957142D02*
X117709523Y-137004761D01*
X117566666Y-137052380D01*
X117471428Y-137052380D01*
X117328571Y-137004761D01*
X117233333Y-136909523D01*
X117185714Y-136814285D01*
X117138095Y-136623809D01*
X117138095Y-136480952D01*
X117185714Y-136290476D01*
X117233333Y-136195238D01*
X117328571Y-136100000D01*
X117471428Y-136052380D01*
X117566666Y-136052380D01*
X117709523Y-136100000D01*
X117757142Y-136147619D01*
X118138095Y-136147619D02*
X118185714Y-136100000D01*
X118280952Y-136052380D01*
X118519047Y-136052380D01*
X118614285Y-136100000D01*
X118661904Y-136147619D01*
X118709523Y-136242857D01*
X118709523Y-136338095D01*
X118661904Y-136480952D01*
X118090476Y-137052380D01*
X118709523Y-137052380D01*
X119614285Y-136052380D02*
X119138095Y-136052380D01*
X119090476Y-136528571D01*
X119138095Y-136480952D01*
X119233333Y-136433333D01*
X119471428Y-136433333D01*
X119566666Y-136480952D01*
X119614285Y-136528571D01*
X119661904Y-136623809D01*
X119661904Y-136861904D01*
X119614285Y-136957142D01*
X119566666Y-137004761D01*
X119471428Y-137052380D01*
X119233333Y-137052380D01*
X119138095Y-137004761D01*
X119090476Y-136957142D01*
%TO.C,C19*%
X119257142Y-122457142D02*
X119209523Y-122504761D01*
X119066666Y-122552380D01*
X118971428Y-122552380D01*
X118828571Y-122504761D01*
X118733333Y-122409523D01*
X118685714Y-122314285D01*
X118638095Y-122123809D01*
X118638095Y-121980952D01*
X118685714Y-121790476D01*
X118733333Y-121695238D01*
X118828571Y-121600000D01*
X118971428Y-121552380D01*
X119066666Y-121552380D01*
X119209523Y-121600000D01*
X119257142Y-121647619D01*
X120209523Y-122552380D02*
X119638095Y-122552380D01*
X119923809Y-122552380D02*
X119923809Y-121552380D01*
X119828571Y-121695238D01*
X119733333Y-121790476D01*
X119638095Y-121838095D01*
X120685714Y-122552380D02*
X120876190Y-122552380D01*
X120971428Y-122504761D01*
X121019047Y-122457142D01*
X121114285Y-122314285D01*
X121161904Y-122123809D01*
X121161904Y-121742857D01*
X121114285Y-121647619D01*
X121066666Y-121600000D01*
X120971428Y-121552380D01*
X120780952Y-121552380D01*
X120685714Y-121600000D01*
X120638095Y-121647619D01*
X120590476Y-121742857D01*
X120590476Y-121980952D01*
X120638095Y-122076190D01*
X120685714Y-122123809D01*
X120780952Y-122171428D01*
X120971428Y-122171428D01*
X121066666Y-122123809D01*
X121114285Y-122076190D01*
X121161904Y-121980952D01*
%TO.C,C18*%
X129507142Y-140907142D02*
X129459523Y-140954761D01*
X129316666Y-141002380D01*
X129221428Y-141002380D01*
X129078571Y-140954761D01*
X128983333Y-140859523D01*
X128935714Y-140764285D01*
X128888095Y-140573809D01*
X128888095Y-140430952D01*
X128935714Y-140240476D01*
X128983333Y-140145238D01*
X129078571Y-140050000D01*
X129221428Y-140002380D01*
X129316666Y-140002380D01*
X129459523Y-140050000D01*
X129507142Y-140097619D01*
X130459523Y-141002380D02*
X129888095Y-141002380D01*
X130173809Y-141002380D02*
X130173809Y-140002380D01*
X130078571Y-140145238D01*
X129983333Y-140240476D01*
X129888095Y-140288095D01*
X131030952Y-140430952D02*
X130935714Y-140383333D01*
X130888095Y-140335714D01*
X130840476Y-140240476D01*
X130840476Y-140192857D01*
X130888095Y-140097619D01*
X130935714Y-140050000D01*
X131030952Y-140002380D01*
X131221428Y-140002380D01*
X131316666Y-140050000D01*
X131364285Y-140097619D01*
X131411904Y-140192857D01*
X131411904Y-140240476D01*
X131364285Y-140335714D01*
X131316666Y-140383333D01*
X131221428Y-140430952D01*
X131030952Y-140430952D01*
X130935714Y-140478571D01*
X130888095Y-140526190D01*
X130840476Y-140621428D01*
X130840476Y-140811904D01*
X130888095Y-140907142D01*
X130935714Y-140954761D01*
X131030952Y-141002380D01*
X131221428Y-141002380D01*
X131316666Y-140954761D01*
X131364285Y-140907142D01*
X131411904Y-140811904D01*
X131411904Y-140621428D01*
X131364285Y-140526190D01*
X131316666Y-140478571D01*
X131221428Y-140430952D01*
%TO.C,C13*%
X139807142Y-127707142D02*
X139759523Y-127754761D01*
X139616666Y-127802380D01*
X139521428Y-127802380D01*
X139378571Y-127754761D01*
X139283333Y-127659523D01*
X139235714Y-127564285D01*
X139188095Y-127373809D01*
X139188095Y-127230952D01*
X139235714Y-127040476D01*
X139283333Y-126945238D01*
X139378571Y-126850000D01*
X139521428Y-126802380D01*
X139616666Y-126802380D01*
X139759523Y-126850000D01*
X139807142Y-126897619D01*
X140759523Y-127802380D02*
X140188095Y-127802380D01*
X140473809Y-127802380D02*
X140473809Y-126802380D01*
X140378571Y-126945238D01*
X140283333Y-127040476D01*
X140188095Y-127088095D01*
X141092857Y-126802380D02*
X141711904Y-126802380D01*
X141378571Y-127183333D01*
X141521428Y-127183333D01*
X141616666Y-127230952D01*
X141664285Y-127278571D01*
X141711904Y-127373809D01*
X141711904Y-127611904D01*
X141664285Y-127707142D01*
X141616666Y-127754761D01*
X141521428Y-127802380D01*
X141235714Y-127802380D01*
X141140476Y-127754761D01*
X141092857Y-127707142D01*
%TO.C,C12*%
X131657142Y-123927142D02*
X131609523Y-123974761D01*
X131466666Y-124022380D01*
X131371428Y-124022380D01*
X131228571Y-123974761D01*
X131133333Y-123879523D01*
X131085714Y-123784285D01*
X131038095Y-123593809D01*
X131038095Y-123450952D01*
X131085714Y-123260476D01*
X131133333Y-123165238D01*
X131228571Y-123070000D01*
X131371428Y-123022380D01*
X131466666Y-123022380D01*
X131609523Y-123070000D01*
X131657142Y-123117619D01*
X132609523Y-124022380D02*
X132038095Y-124022380D01*
X132323809Y-124022380D02*
X132323809Y-123022380D01*
X132228571Y-123165238D01*
X132133333Y-123260476D01*
X132038095Y-123308095D01*
X132990476Y-123117619D02*
X133038095Y-123070000D01*
X133133333Y-123022380D01*
X133371428Y-123022380D01*
X133466666Y-123070000D01*
X133514285Y-123117619D01*
X133561904Y-123212857D01*
X133561904Y-123308095D01*
X133514285Y-123450952D01*
X132942857Y-124022380D01*
X133561904Y-124022380D01*
%TO.C,C11*%
X166357142Y-145892857D02*
X166404761Y-145940476D01*
X166452380Y-146083333D01*
X166452380Y-146178571D01*
X166404761Y-146321428D01*
X166309523Y-146416666D01*
X166214285Y-146464285D01*
X166023809Y-146511904D01*
X165880952Y-146511904D01*
X165690476Y-146464285D01*
X165595238Y-146416666D01*
X165500000Y-146321428D01*
X165452380Y-146178571D01*
X165452380Y-146083333D01*
X165500000Y-145940476D01*
X165547619Y-145892857D01*
X166452380Y-144940476D02*
X166452380Y-145511904D01*
X166452380Y-145226190D02*
X165452380Y-145226190D01*
X165595238Y-145321428D01*
X165690476Y-145416666D01*
X165738095Y-145511904D01*
X166452380Y-143988095D02*
X166452380Y-144559523D01*
X166452380Y-144273809D02*
X165452380Y-144273809D01*
X165595238Y-144369047D01*
X165690476Y-144464285D01*
X165738095Y-144559523D01*
%TO.C,C10*%
X135107142Y-124077142D02*
X135059523Y-124124761D01*
X134916666Y-124172380D01*
X134821428Y-124172380D01*
X134678571Y-124124761D01*
X134583333Y-124029523D01*
X134535714Y-123934285D01*
X134488095Y-123743809D01*
X134488095Y-123600952D01*
X134535714Y-123410476D01*
X134583333Y-123315238D01*
X134678571Y-123220000D01*
X134821428Y-123172380D01*
X134916666Y-123172380D01*
X135059523Y-123220000D01*
X135107142Y-123267619D01*
X136059523Y-124172380D02*
X135488095Y-124172380D01*
X135773809Y-124172380D02*
X135773809Y-123172380D01*
X135678571Y-123315238D01*
X135583333Y-123410476D01*
X135488095Y-123458095D01*
X136678571Y-123172380D02*
X136773809Y-123172380D01*
X136869047Y-123220000D01*
X136916666Y-123267619D01*
X136964285Y-123362857D01*
X137011904Y-123553333D01*
X137011904Y-123791428D01*
X136964285Y-123981904D01*
X136916666Y-124077142D01*
X136869047Y-124124761D01*
X136773809Y-124172380D01*
X136678571Y-124172380D01*
X136583333Y-124124761D01*
X136535714Y-124077142D01*
X136488095Y-123981904D01*
X136440476Y-123791428D01*
X136440476Y-123553333D01*
X136488095Y-123362857D01*
X136535714Y-123267619D01*
X136583333Y-123220000D01*
X136678571Y-123172380D01*
%TO.C,C9*%
X135283333Y-134907142D02*
X135235714Y-134954761D01*
X135092857Y-135002380D01*
X134997619Y-135002380D01*
X134854761Y-134954761D01*
X134759523Y-134859523D01*
X134711904Y-134764285D01*
X134664285Y-134573809D01*
X134664285Y-134430952D01*
X134711904Y-134240476D01*
X134759523Y-134145238D01*
X134854761Y-134050000D01*
X134997619Y-134002380D01*
X135092857Y-134002380D01*
X135235714Y-134050000D01*
X135283333Y-134097619D01*
X135759523Y-135002380D02*
X135950000Y-135002380D01*
X136045238Y-134954761D01*
X136092857Y-134907142D01*
X136188095Y-134764285D01*
X136235714Y-134573809D01*
X136235714Y-134192857D01*
X136188095Y-134097619D01*
X136140476Y-134050000D01*
X136045238Y-134002380D01*
X135854761Y-134002380D01*
X135759523Y-134050000D01*
X135711904Y-134097619D01*
X135664285Y-134192857D01*
X135664285Y-134430952D01*
X135711904Y-134526190D01*
X135759523Y-134573809D01*
X135854761Y-134621428D01*
X136045238Y-134621428D01*
X136140476Y-134573809D01*
X136188095Y-134526190D01*
X136235714Y-134430952D01*
%TO.C,C8*%
X114427142Y-123116666D02*
X114474761Y-123164285D01*
X114522380Y-123307142D01*
X114522380Y-123402380D01*
X114474761Y-123545238D01*
X114379523Y-123640476D01*
X114284285Y-123688095D01*
X114093809Y-123735714D01*
X113950952Y-123735714D01*
X113760476Y-123688095D01*
X113665238Y-123640476D01*
X113570000Y-123545238D01*
X113522380Y-123402380D01*
X113522380Y-123307142D01*
X113570000Y-123164285D01*
X113617619Y-123116666D01*
X113950952Y-122545238D02*
X113903333Y-122640476D01*
X113855714Y-122688095D01*
X113760476Y-122735714D01*
X113712857Y-122735714D01*
X113617619Y-122688095D01*
X113570000Y-122640476D01*
X113522380Y-122545238D01*
X113522380Y-122354761D01*
X113570000Y-122259523D01*
X113617619Y-122211904D01*
X113712857Y-122164285D01*
X113760476Y-122164285D01*
X113855714Y-122211904D01*
X113903333Y-122259523D01*
X113950952Y-122354761D01*
X113950952Y-122545238D01*
X113998571Y-122640476D01*
X114046190Y-122688095D01*
X114141428Y-122735714D01*
X114331904Y-122735714D01*
X114427142Y-122688095D01*
X114474761Y-122640476D01*
X114522380Y-122545238D01*
X114522380Y-122354761D01*
X114474761Y-122259523D01*
X114427142Y-122211904D01*
X114331904Y-122164285D01*
X114141428Y-122164285D01*
X114046190Y-122211904D01*
X113998571Y-122259523D01*
X113950952Y-122354761D01*
%TO.C,C7*%
X110177142Y-124516666D02*
X110224761Y-124564285D01*
X110272380Y-124707142D01*
X110272380Y-124802380D01*
X110224761Y-124945238D01*
X110129523Y-125040476D01*
X110034285Y-125088095D01*
X109843809Y-125135714D01*
X109700952Y-125135714D01*
X109510476Y-125088095D01*
X109415238Y-125040476D01*
X109320000Y-124945238D01*
X109272380Y-124802380D01*
X109272380Y-124707142D01*
X109320000Y-124564285D01*
X109367619Y-124516666D01*
X109272380Y-124183333D02*
X109272380Y-123516666D01*
X110272380Y-123945238D01*
%TO.C,C6*%
X134107142Y-127666666D02*
X134154761Y-127714285D01*
X134202380Y-127857142D01*
X134202380Y-127952380D01*
X134154761Y-128095238D01*
X134059523Y-128190476D01*
X133964285Y-128238095D01*
X133773809Y-128285714D01*
X133630952Y-128285714D01*
X133440476Y-128238095D01*
X133345238Y-128190476D01*
X133250000Y-128095238D01*
X133202380Y-127952380D01*
X133202380Y-127857142D01*
X133250000Y-127714285D01*
X133297619Y-127666666D01*
X133202380Y-126809523D02*
X133202380Y-127000000D01*
X133250000Y-127095238D01*
X133297619Y-127142857D01*
X133440476Y-127238095D01*
X133630952Y-127285714D01*
X134011904Y-127285714D01*
X134107142Y-127238095D01*
X134154761Y-127190476D01*
X134202380Y-127095238D01*
X134202380Y-126904761D01*
X134154761Y-126809523D01*
X134107142Y-126761904D01*
X134011904Y-126714285D01*
X133773809Y-126714285D01*
X133678571Y-126761904D01*
X133630952Y-126809523D01*
X133583333Y-126904761D01*
X133583333Y-127095238D01*
X133630952Y-127190476D01*
X133678571Y-127238095D01*
X133773809Y-127285714D01*
%TO.C,C5*%
X117333333Y-119057142D02*
X117285714Y-119104761D01*
X117142857Y-119152380D01*
X117047619Y-119152380D01*
X116904761Y-119104761D01*
X116809523Y-119009523D01*
X116761904Y-118914285D01*
X116714285Y-118723809D01*
X116714285Y-118580952D01*
X116761904Y-118390476D01*
X116809523Y-118295238D01*
X116904761Y-118200000D01*
X117047619Y-118152380D01*
X117142857Y-118152380D01*
X117285714Y-118200000D01*
X117333333Y-118247619D01*
X118238095Y-118152380D02*
X117761904Y-118152380D01*
X117714285Y-118628571D01*
X117761904Y-118580952D01*
X117857142Y-118533333D01*
X118095238Y-118533333D01*
X118190476Y-118580952D01*
X118238095Y-118628571D01*
X118285714Y-118723809D01*
X118285714Y-118961904D01*
X118238095Y-119057142D01*
X118190476Y-119104761D01*
X118095238Y-119152380D01*
X117857142Y-119152380D01*
X117761904Y-119104761D01*
X117714285Y-119057142D01*
%TO.C,C4*%
X151333333Y-142607142D02*
X151285714Y-142654761D01*
X151142857Y-142702380D01*
X151047619Y-142702380D01*
X150904761Y-142654761D01*
X150809523Y-142559523D01*
X150761904Y-142464285D01*
X150714285Y-142273809D01*
X150714285Y-142130952D01*
X150761904Y-141940476D01*
X150809523Y-141845238D01*
X150904761Y-141750000D01*
X151047619Y-141702380D01*
X151142857Y-141702380D01*
X151285714Y-141750000D01*
X151333333Y-141797619D01*
X152190476Y-142035714D02*
X152190476Y-142702380D01*
X151952380Y-141654761D02*
X151714285Y-142369047D01*
X152333333Y-142369047D01*
%TD*%
M02*
