%TF.GenerationSoftware,KiCad,Pcbnew,5.1.10*%
%TF.CreationDate,2021-07-04T17:59:21+02:00*%
%TF.ProjectId,SoundLazer,536f756e-644c-4617-9a65-722e6b696361,rev?*%
%TF.SameCoordinates,Original*%
%TF.FileFunction,Soldermask,Bot*%
%TF.FilePolarity,Negative*%
%FSLAX46Y46*%
G04 Gerber Fmt 4.6, Leading zero omitted, Abs format (unit mm)*
G04 Created by KiCad (PCBNEW 5.1.10) date 2021-07-04 17:59:21*
%MOMM*%
%LPD*%
G01*
G04 APERTURE LIST*
%ADD10C,1.200000*%
%ADD11O,1.308000X2.616000*%
%ADD12O,2.616000X1.308000*%
%ADD13C,0.900000*%
%ADD14R,1.700000X1.700000*%
%ADD15O,1.700000X1.700000*%
%ADD16C,2.700000*%
%ADD17C,1.500000*%
%ADD18O,3.600000X1.800000*%
%ADD19O,1.800000X3.600000*%
%ADD20C,1.440000*%
G04 APERTURE END LIST*
D10*
%TO.C,J1*%
X108750000Y-100250000D03*
X108750000Y-97750000D03*
X113750000Y-105250000D03*
X118750000Y-100250000D03*
X118750000Y-97750000D03*
D11*
X118750000Y-105250000D03*
X108750000Y-105250000D03*
D12*
X113750000Y-100250000D03*
%TD*%
D13*
%TO.C,SW2*%
X134350000Y-97420000D03*
X139350000Y-97420000D03*
%TD*%
D14*
%TO.C,J2*%
X110400000Y-140900000D03*
D15*
X110400000Y-138360000D03*
X110400000Y-135820000D03*
X110400000Y-133280000D03*
X110400000Y-130740000D03*
%TD*%
D16*
%TO.C,H4*%
X111000000Y-146000000D03*
%TD*%
%TO.C,H3*%
X125000000Y-99000000D03*
%TD*%
%TO.C,H2*%
X194000000Y-146000000D03*
%TD*%
%TO.C,H1*%
X194000000Y-99000000D03*
%TD*%
D17*
%TO.C,TP4*%
X156000000Y-137750000D03*
%TD*%
%TO.C,TP3*%
X160400000Y-130600000D03*
%TD*%
%TO.C,TP2*%
X160400000Y-127400000D03*
%TD*%
%TO.C,TP1*%
X176150000Y-145700000D03*
%TD*%
D13*
%TO.C,SW1*%
X155000000Y-97420000D03*
X150000000Y-97420000D03*
%TD*%
%TO.C,J5*%
G36*
G01*
X192450000Y-114100000D02*
X195550000Y-114100000D01*
G75*
G02*
X195800000Y-114350000I0J-250000D01*
G01*
X195800000Y-115650000D01*
G75*
G02*
X195550000Y-115900000I-250000J0D01*
G01*
X192450000Y-115900000D01*
G75*
G02*
X192200000Y-115650000I0J250000D01*
G01*
X192200000Y-114350000D01*
G75*
G02*
X192450000Y-114100000I250000J0D01*
G01*
G37*
D18*
X194000000Y-118500000D03*
%TD*%
%TO.C,J4*%
G36*
G01*
X182100000Y-101550000D02*
X182100000Y-98450000D01*
G75*
G02*
X182350000Y-98200000I250000J0D01*
G01*
X183650000Y-98200000D01*
G75*
G02*
X183900000Y-98450000I0J-250000D01*
G01*
X183900000Y-101550000D01*
G75*
G02*
X183650000Y-101800000I-250000J0D01*
G01*
X182350000Y-101800000D01*
G75*
G02*
X182100000Y-101550000I0J250000D01*
G01*
G37*
D19*
X186500000Y-100000000D03*
%TD*%
D14*
%TO.C,J3*%
X172050000Y-141200000D03*
D15*
X172050000Y-138660000D03*
X174590000Y-141200000D03*
X174590000Y-138660000D03*
%TD*%
D20*
%TO.C,Freq1*%
X150690000Y-145750000D03*
X148150000Y-145750000D03*
X145610000Y-145750000D03*
%TD*%
%TO.C,Duty1*%
X158710000Y-136000000D03*
X161250000Y-136000000D03*
X163790000Y-136000000D03*
%TD*%
M02*
